<svg width="64" height="64" viewBox="0 0 64 64" fill="none" xmlns="http://www.w3.org/2000/svg">
<path fill-rule="evenodd" clip-rule="evenodd" d="M28.3203 6.00101C28.3151 6.00097 28.3099 6.00097 28.3047 6.00101C28.2705 6.00592 28.2367 6.01261 28.2032 6.02103C28.1198 6.03405 28.0384 6.05752 27.961 6.09097L4.83598 15.9816C4.60076 16.0207 4.38726 16.1426 4.23399 16.3252C4.08071 16.5079 3.99774 16.7394 4.00005 16.9778V46.9856C4.00016 47.0264 4.00276 47.067 4.00784 47.1075C4.00778 47.1141 4.00778 47.1208 4.00784 47.1275C4.01112 47.1483 4.01506 47.1689 4.01965 47.1895C4.04862 47.3561 4.11935 47.5127 4.22524 47.6446C4.33112 47.7764 4.4687 47.8792 4.62512 47.9434L27.9611 57.9239C28.0726 57.9709 28.1917 57.9975 28.3126 58.002C28.3269 58.0023 28.3413 58.0023 28.3556 58.002H28.3596C28.37 58.0021 28.3804 58.0021 28.3908 58.002C28.4038 58.0022 28.4169 58.0022 28.4299 58.002C28.4507 58.0026 28.4715 58.0026 28.4924 58.002C28.5945 57.9927 28.6947 57.9678 28.7892 57.928L41.4767 52.5022C41.9476 53.3196 42.5208 54.0933 43.2189 54.7913C47.5088 59.0811 54.4916 59.0839 58.7814 54.7913C63.0706 50.5023 63.0692 43.5188 58.7814 39.2288C57.0827 37.53 54.9595 36.5154 52.7502 36.1624V16.9866C52.753 16.7458 52.6688 16.5121 52.5131 16.3284C52.3573 16.1447 52.1405 16.0233 51.9025 15.9866L28.7892 6.09976C28.7058 6.06329 28.6177 6.03842 28.5275 6.02579C28.5184 6.02566 28.5093 6.02566 28.5002 6.02579C28.4755 6.02487 28.4507 6.02487 28.426 6.02579C28.3908 6.02393 28.3556 6.02393 28.3205 6.02579L28.3203 6.00101ZM28.375 8.08694L33.2774 10.1808L12.5 19.0674C12.4802 19.0761 12.4606 19.0855 12.4414 19.0955L7.53906 16.9978L28.375 8.08694ZM35.8203 11.2705L41.7695 13.8174L20.6016 22.8682C20.3653 22.9582 20.1719 23.1345 20.0603 23.3614C19.9487 23.5882 19.9271 23.8487 20 24.0909V34.6963L17.832 31.4463C17.6968 31.243 17.4918 31.0963 17.2558 31.0337C17.0198 30.9711 16.769 30.9969 16.5508 31.1065L14 32.3799V20.6026L35.8203 11.2705ZM44.3047 14.8996L49.2109 16.9971L28.375 25.9112L23.4727 23.8135L44.25 14.9268C44.2685 14.918 44.2868 14.9095 44.3047 14.8996ZM6.00001 18.5169L12 21.0833V34.001C12.0002 34.1712 12.0438 34.3384 12.1267 34.4871C12.2096 34.6357 12.329 34.7608 12.4737 34.8504C12.6185 34.9399 12.7837 34.9912 12.9537 34.9991C13.1237 35.007 13.2929 34.9713 13.4453 34.8955L16.6563 33.2901L20.1133 38.4737C20.206 38.6529 20.3507 38.8001 20.5285 38.8955C20.7063 38.991 20.9088 39.0305 21.1094 39.0088C21.1449 39.004 21.1801 38.9973 21.2148 38.9888C21.2253 38.989 21.2357 38.989 21.2461 38.9888C21.2685 38.9829 21.2906 38.9762 21.3125 38.9688C21.4071 38.9382 21.4966 38.8937 21.5781 38.8367C21.7287 38.7323 21.8476 38.5886 21.922 38.4212C21.9964 38.2537 22.0234 38.0692 22 37.8875V25.364L27.375 27.6609V55.493L6.00001 46.3484V18.5203V18.5169ZM50.75 18.5169V36.0127C48.0154 36.0747 45.3001 37.1357 43.2188 39.2159C41.677 40.7575 40.6953 42.6505 40.2617 44.6377C40.2396 44.637 40.2175 44.637 40.1953 44.6377C40.0726 44.6443 39.9521 44.6734 39.8399 44.7237L37.8281 45.5833L31.9961 48.0752C31.8753 48.1268 31.7658 48.2016 31.6739 48.2954C31.582 48.3893 31.5095 48.5005 31.4606 48.6223C31.3616 48.8685 31.3646 49.1437 31.4687 49.3877C31.5728 49.6317 31.7696 49.8245 32.0157 49.9234C32.2619 50.0223 32.5373 50.0192 32.7813 49.9151L38.6133 47.419L40.0078 46.8213C39.9872 48.1237 40.203 49.427 40.6406 50.669L29.375 55.4893V27.6573L50.75 18.5169ZM51 37.9932C53.3027 37.993 55.6044 38.8735 57.3672 40.6377C60.8927 44.1633 60.8927 49.8543 57.3672 53.3799C53.8417 56.9053 48.1584 56.9027 44.6328 53.3799C41.1073 49.8543 41.1073 44.1709 44.6328 40.6455C46.3956 38.8827 48.6973 38.0014 51 38.001V37.9932ZM38.1875 41.5049C38.0634 41.511 37.9415 41.5401 37.8281 41.5909L31.9961 44.0869C31.8745 44.1379 31.7641 44.2126 31.6714 44.3064C31.5787 44.4002 31.5055 44.5114 31.4559 44.6336C31.4064 44.7558 31.3815 44.8865 31.3827 45.0183C31.3839 45.1502 31.4111 45.2806 31.4629 45.4019C31.5147 45.5232 31.5899 45.633 31.6843 45.7251C31.7787 45.8172 31.8904 45.89 32.0129 45.9388C32.1354 45.9875 32.2664 46.0116 32.3983 46.0096C32.5301 46.0075 32.6603 45.9793 32.7812 45.9268L38.6133 43.4307C38.8324 43.342 39.013 43.1785 39.123 42.9693C39.2331 42.7601 39.2654 42.5187 39.2144 42.2879C39.1634 42.0571 39.0322 41.8518 38.8442 41.7085C38.6563 41.5652 38.4236 41.493 38.1875 41.5049Z" fill="black"/>
</svg>
