<svg width="74" height="74" viewBox="0 0 74 74" fill="none" xmlns="http://www.w3.org/2000/svg">
<path d="M33.0658 64.3521C31.9807 64.3521 30.6088 63.984 27.8621 62.4715C26.3031 61.6106 24.7975 60.6565 23.3534 59.6142L16.9771 61.527C16.8034 61.5789 16.6199 61.5894 16.4414 61.5574C16.2629 61.5254 16.0944 61.452 15.9496 61.3429C12.5118 58.7551 9.82975 55.2939 8.18215 51.3189C8.11168 51.1492 8.08267 50.9651 8.09754 50.7819C8.1124 50.5988 8.17071 50.4218 8.26762 50.2657C8.36454 50.1095 8.49727 49.9788 8.65481 49.8842C8.81236 49.7896 8.99018 49.7339 9.17354 49.7217C12.5212 49.5125 15.8009 48.6828 18.8453 47.2749C19.9028 46.782 20.9267 46.22 21.9104 45.5924C23.2713 44.6379 24.7107 43.8003 26.213 43.0886C27.1397 42.6843 28.0886 42.3327 29.0551 42.0356C29.142 42.0125 29.2877 41.9735 29.4757 41.9177L29.6693 41.8578C29.8556 41.7997 30.0273 41.7461 30.4382 41.6393C30.8272 41.5383 31.3511 41.4101 31.9987 41.278C33.4653 40.9265 34.9773 40.8032 36.4815 40.9127C37.1534 40.9619 37.8184 41.0815 38.4654 41.2695C39.3241 41.5264 40.0925 41.8392 40.8355 42.1418C41.6343 42.4836 42.4515 42.7804 43.2835 43.0309C44.0008 43.2364 44.7369 43.3694 45.4808 43.4278C46.2176 43.499 47.135 43.587 47.5319 44.5598C47.651 44.8891 47.6935 45.2412 47.6561 45.5894C47.6188 45.9375 47.5025 46.2726 47.3162 46.5691C46.809 47.5558 45.9833 48.3422 44.9731 48.8007C43.9628 49.2592 42.8273 49.363 41.7507 49.0951C41.4317 49.0459 41.1415 48.9901 40.8744 48.9286C41.2719 49.214 41.6884 49.4721 42.121 49.7009C43.7587 50.5637 45.5893 50.9945 47.4399 50.9526L50.9306 50.952C51.2169 50.9519 51.4931 51.0582 51.7056 51.2501C51.9181 51.442 52.0517 51.706 52.0807 51.9909C52.1957 52.9252 52.0329 53.8727 51.6126 54.715C50.5134 56.8446 47.7628 57.9268 44.6616 57.4877C42.2333 59.3756 39.7842 61.1501 37.3757 62.7653C36.2049 63.6657 34.8017 64.2137 33.3305 64.345C33.2436 64.3493 33.1556 64.3521 33.0658 64.3521ZM23.5719 57.1853C23.82 57.1853 24.0615 57.2651 24.2607 57.4129C25.7635 58.528 27.3394 59.5412 28.9777 60.4457C31.9829 62.101 32.8106 62.0559 33.2069 62.0356C34.2613 61.9223 35.2611 61.5089 36.0874 60.8443C38.5823 59.1715 41.1223 57.3236 43.6375 55.3533C43.7677 55.2508 43.9186 55.1776 44.0798 55.1388C44.241 55.1 44.4086 55.0965 44.5713 55.1286C46.7951 55.5605 48.8931 54.9411 49.557 53.6556C49.6212 53.5308 49.6722 53.3997 49.7095 53.2643H47.4675C45.3083 53.3123 43.1706 52.8267 41.244 51.8505C39.3175 50.8743 37.6616 49.4378 36.4233 47.6683C35.9283 47.6348 35.4317 47.6352 34.9368 47.6694C34.7279 47.6841 34.5551 47.7022 34.4405 47.7151C34.1363 47.7498 33.8307 47.6624 33.5909 47.472C33.3511 47.2817 33.1966 47.0039 33.1613 46.6998C33.126 46.3956 33.2128 46.0899 33.4027 45.8497C33.5925 45.6094 33.8699 45.4544 34.174 45.4185C34.3123 45.4021 34.5212 45.3806 34.777 45.3626C35.5841 45.3077 36.3946 45.3258 37.1985 45.4168L37.2204 45.4196C38.0732 45.5283 38.9055 45.7609 39.691 46.1101C40.4609 46.4468 41.2713 46.6819 42.1018 46.8096C42.515 46.915 42.944 46.9436 43.3676 46.8937C44.0715 46.7127 44.693 46.2978 45.1302 45.7171C44.2894 45.6426 43.4577 45.4876 42.6465 45.2542C41.7349 44.9809 40.8392 44.6569 39.9637 44.2837C39.2393 43.9884 38.5551 43.7101 37.8025 43.4848C37.3092 43.3424 36.8022 43.2527 36.29 43.2172C35.0045 43.1294 33.7131 43.2396 32.461 43.5441C31.8626 43.666 31.3782 43.784 31.0186 43.8772C30.6663 43.9687 30.5189 44.015 30.3597 44.0646L30.1384 44.1329C29.9182 44.1984 29.7488 44.2442 29.6793 44.2622C28.8248 44.5288 27.985 44.8407 27.1636 45.1966C25.782 45.8565 24.4575 46.6298 23.2037 47.5085C22.119 48.2041 20.989 48.8264 19.8213 49.3711C17.0247 50.668 14.0402 51.5133 10.9789 51.8755C12.3962 54.697 14.4106 57.1762 16.8821 59.141L23.2399 57.2339C23.3476 57.2016 23.4595 57.1853 23.5719 57.1853Z" fill="black"/>
<path d="M58.9688 53.1875H45.7758C45.4691 53.1875 45.175 53.0657 44.9582 52.8488C44.7413 52.632 44.6195 52.3379 44.6195 52.0312C44.6195 51.7246 44.7413 51.4305 44.9582 51.2137C45.175 50.9968 45.4691 50.875 45.7758 50.875H57.8125V15.0312H19.6562V48.7014C19.6562 49.008 19.5344 49.3021 19.3176 49.519C19.1008 49.7358 18.8067 49.8576 18.5 49.8576C18.1933 49.8576 17.8992 49.7358 17.6824 49.519C17.4656 49.3021 17.3438 49.008 17.3438 48.7014V13.875C17.3438 13.5683 17.4656 13.2742 17.6824 13.0574C17.8992 12.8406 18.1933 12.7188 18.5 12.7188H58.9688C59.2754 12.7188 59.5695 12.8406 59.7863 13.0574C60.0032 13.2742 60.125 13.5683 60.125 13.875V52.0312C60.125 52.3379 60.0032 52.632 59.7863 52.8488C59.5695 53.0657 59.2754 53.1875 58.9688 53.1875Z" fill="black"/>
<path d="M43.3594 24.2812H34.1094C33.8027 24.2812 33.5086 24.1594 33.2918 23.9426C33.0749 23.7258 32.9531 23.4317 32.9531 23.125V13.875C32.9531 13.5683 33.0749 13.2742 33.2918 13.0574C33.5086 12.8406 33.8027 12.7188 34.1094 12.7188H43.3594C43.666 12.7188 43.9601 12.8406 44.177 13.0574C44.3938 13.2742 44.5156 13.5683 44.5156 13.875V23.125C44.5156 23.4317 44.3938 23.7258 44.177 23.9426C43.9601 24.1594 43.666 24.2812 43.3594 24.2812ZM35.2656 21.9688H42.2031V15.0312H35.2656V21.9688Z" fill="black"/>
</svg>
