<svg width="63" height="63" viewBox="0 0 63 63" fill="none" xmlns="http://www.w3.org/2000/svg">
<path d="M24.5554 35.435L34.3766 44.8678L50.0905 29.7753C55.9301 24.1665 56.5306 15.4313 51.8918 9.17963L24.5554 35.435ZM28.4838 42.9812L14.7342 56.1871C12.5645 58.271 9.04687 58.271 6.87723 56.1871C4.70759 54.1033 4.70759 50.7247 6.87723 48.6409L52.0547 5.25C59.6484 12.5434 59.6484 24.3684 52.0547 31.6618L34.3766 48.6409L28.4838 42.9812ZM26.5196 41.0946L22.5911 37.3215L8.84147 50.5274C7.75665 51.5694 7.75665 53.2586 8.84147 54.3006C9.92628 55.3425 11.6851 55.3425 12.7699 54.3006L26.5196 41.0946Z" fill="black"/>
</svg>
