<svg width="64" height="64" viewBox="0 0 64 64" fill="none" xmlns="http://www.w3.org/2000/svg">
<path d="M60.6004 22.4002C60.4004 22.2002 55.1004 18.1002 50.7004 17.9002C48.5004 17.8002 46.9004 18.1002 45.8004 19.0002C45.0004 19.6002 44.5004 20.5002 44.3004 21.6002H44.2004H44.1004C44.1004 21.6002 44.0004 21.6002 43.9004 21.6002H43.8004C36.5004 23.4002 33.3004 30.4002 31.9004 36.9002C31.9004 36.8002 31.9004 36.8002 31.9004 36.7002C31.3004 33.1002 29.5004 19.3002 37.8004 15.7002C38.2004 16.6002 38.9004 17.2002 39.6004 17.6002C40.2004 17.9002 41.0004 18.1002 41.8004 18.1002C42.7004 18.1002 43.6004 17.9002 44.7004 17.5002C44.7004 17.5002 44.8004 17.5002 44.8004 17.4002C46.6004 16.4002 47.5004 15.5002 48.3004 14.6002C49.3004 13.5002 50.3004 12.5002 52.9004 11.4002C53.3004 11.2002 53.5004 10.9002 53.5004 10.5002C53.5004 10.1002 53.2004 9.70015 52.8004 9.60015C52.5004 9.50015 46.2004 7.20015 42.0004 8.30015C37.6004 9.50015 36.8004 11.8002 37.0004 13.8002C36.9004 13.8002 36.9004 13.9002 36.8004 13.9002C30.7004 16.5002 29.2004 23.5002 29.1004 29.3002C27.2004 25.7002 24.3004 22.7002 19.9004 21.6002H19.8004C19.7004 21.6002 19.7004 21.6002 19.6004 21.6002H19.5004C19.2004 19.6002 17.9004 17.6002 13.3004 17.6002C9.00043 17.6002 3.40043 21.4002 3.20043 21.6002C2.90043 21.8002 2.70043 22.3002 2.80043 22.6002C2.90043 23.0002 3.20043 23.3002 3.60043 23.4002C6.40043 23.8002 7.60043 24.6002 8.90043 25.4002C10.0004 26.1002 11.1004 26.8002 13.1004 27.2002H13.2004C13.5004 27.2002 13.9004 27.2002 14.2004 27.2002C15.9004 27.2002 17.2004 26.8002 18.1004 25.9002C18.8004 25.3002 19.2004 24.5002 19.4004 23.6002C29.7004 26.4002 30.9004 41.2002 30.9004 47.0002C30.9004 47.2002 30.9004 47.4002 30.9004 47.5002C30.9004 47.6002 30.9004 47.6002 30.9004 47.7002C30.9004 48.0002 30.9004 48.3002 30.9004 48.5002C30.5004 48.6002 30.2004 48.7002 29.8004 48.8002C29.4004 49.0002 29.0004 49.1002 28.6004 49.1002C28.2004 49.1002 27.8004 49.0002 27.3004 48.9002C26.7004 48.8002 26.0004 48.6002 25.3004 48.7002C24.5004 48.8002 23.9004 49.1002 23.3004 49.4002C22.9004 49.6002 22.5004 49.8002 22.2004 49.9002C21.8004 50.0002 21.3004 49.9002 20.8004 49.9002C20.1004 49.8002 19.5004 49.8002 18.8004 50.0002C17.9004 50.3002 17.2004 50.9002 16.7004 51.4002C16.4004 51.6002 16.2004 51.9002 16.0004 52.0002C15.8004 52.1002 15.6004 52.2002 15.4004 52.3002C14.6004 52.7002 13.8004 53.2002 13.3004 53.9002H7.10043C6.50043 53.9002 6.10043 54.3002 6.10043 54.9002C6.10043 55.5002 6.50043 55.9002 7.10043 55.9002H14.0004H14.1004H14.2004H56.9004C57.5004 55.9002 57.9004 55.5002 57.9004 54.9002C57.9004 54.3002 57.5004 53.9002 56.9004 53.9002H50.3004C49.9004 53.2002 49.1004 52.8002 48.2004 52.3002C48.0004 52.2002 47.8004 52.1002 47.6004 52.0002C47.4004 51.9002 47.2004 51.7002 46.9004 51.4002C46.4004 50.9002 45.7004 50.3002 44.8004 50.0002C44.1004 49.8002 43.5004 49.8002 42.8004 49.9002C42.3004 49.9002 41.8004 50.0002 41.4004 49.9002C41.1004 49.8002 40.7004 49.6002 40.3004 49.4002C39.7004 49.1002 39.0004 48.8002 38.3004 48.7002C37.6004 48.6002 37.0004 48.8002 36.3004 48.9002C35.8004 49.0002 35.4004 49.1002 35.0004 49.1002C34.7004 49.1002 34.2004 48.9002 33.8004 48.8002C33.5004 48.7002 33.2004 48.6002 32.8004 48.5002C32.8004 48.2002 32.8004 47.9002 32.8004 47.6002C32.8004 47.5002 32.8004 47.5002 32.8004 47.4002C32.8004 47.2002 32.8004 47.1002 32.8004 46.9002C33.0004 41.0002 34.1004 26.3002 44.3004 23.7002C44.5004 24.6002 44.8004 25.4002 45.5004 26.1002C46.5004 27.1002 48.0004 27.6002 49.9004 27.6002C50.0004 27.6002 50.2004 27.6002 50.3004 27.6002H50.4004C52.4004 27.2002 53.5004 26.6002 54.6004 26.0002C55.9004 25.3002 57.2004 24.6002 60.0004 24.3002C60.4004 24.3002 60.8004 24.0002 60.9004 23.6002C61.1004 23.1002 60.9004 22.7002 60.6004 22.4002ZM42.6004 10.4002C43.3004 10.2002 44.0004 10.2002 44.7004 10.2002C46.5004 10.2002 48.4004 10.6002 49.8004 11.0002C48.4004 11.9002 47.6004 12.7002 46.8004 13.5002C46.0004 14.3002 45.3004 15.1002 43.8004 15.9002C42.4004 16.4002 41.2004 16.5002 40.4004 16.0002C39.9004 15.8002 39.6004 15.4002 39.3004 14.8002C39.7004 14.6002 40.0004 14.4002 40.4004 14.2002C41.3004 13.7002 42.3004 13.3002 43.2004 12.9002C44.2004 12.5002 45.2004 12.1002 46.2004 11.8002C47.2004 11.5002 48.2004 11.3002 49.3004 11.1002C48.2004 11.1002 47.2004 11.2002 46.1004 11.3002C45.0004 11.4002 44.0004 11.6002 42.9004 11.9002C41.9004 12.2002 40.8004 12.4002 39.8004 12.8002C39.5004 12.9002 39.2004 13.0002 38.9004 13.1002C39.2004 12.3002 39.8004 11.2002 42.6004 10.4002ZM13.7004 25.3002C12.1004 24.9002 11.2004 24.3002 10.2004 23.7002C9.20043 23.1002 8.20043 22.5002 6.70043 22.0002C8.60043 21.0002 11.3004 19.6002 13.6004 19.6002C16.5004 19.6002 17.4004 20.5002 17.7004 21.4002C17.4004 21.4002 17.1004 21.3002 16.8004 21.3002C15.7004 21.2002 14.6004 21.2002 13.6004 21.2002C12.5004 21.2002 11.4004 21.3002 10.4004 21.4002C9.30043 21.5002 8.30043 21.7002 7.30043 22.0002C8.20043 22.0002 9.20043 22.0002 10.3004 22.0002C11.4004 22.0002 12.4004 22.1002 13.4004 22.3002C14.4004 22.4002 15.5004 22.6002 16.5004 22.9002C16.9004 23.0002 17.3004 23.1002 17.7004 23.2002C17.6004 23.8002 17.4004 24.3002 17.0004 24.6002C16.3004 25.2002 15.2004 25.4002 13.7004 25.3002ZM35.0004 51.1002C35.7004 51.1002 36.3004 51.0002 36.9004 50.8002C37.4004 50.7002 37.8004 50.6002 38.2004 50.6002C38.6004 50.6002 39.1004 50.9002 39.6004 51.1002C40.1004 51.4002 40.6004 51.6002 41.2004 51.7002C41.9004 51.8002 42.5004 51.8002 43.1004 51.7002C43.6004 51.7002 44.0004 51.6002 44.3004 51.7002C44.8004 51.9002 45.2004 52.2002 45.7004 52.7002C46.0004 53.0002 46.4004 53.3002 46.7004 53.5002C46.8004 53.6002 46.9004 53.6002 47.0004 53.7002H16.7004C16.8004 53.6002 16.9004 53.6002 17.0004 53.5002C17.4004 53.3002 17.7004 53.0002 18.0004 52.7002C18.5004 52.3002 18.9004 51.9002 19.4004 51.8002C19.7004 51.7002 20.2004 51.7002 20.6004 51.8002C21.2004 51.8002 21.8004 51.9002 22.5004 51.8002C23.1004 51.7002 23.6004 51.4002 24.1004 51.2002C24.6004 51.0002 25.0004 50.7002 25.5004 50.7002C25.8004 50.7002 26.3004 50.8002 26.8004 50.9002C27.4004 51.0002 28.0004 51.2002 28.7004 51.2002C29.3004 51.2002 29.9004 51.0002 30.5004 50.8002C31.0004 50.6002 31.5004 50.5002 31.8004 50.5002C32.2004 50.5002 32.7004 50.7002 33.1004 50.8002C33.8004 50.9002 34.3004 51.1002 35.0004 51.1002ZM53.8004 24.1002C52.8004 24.7002 51.8004 25.2002 50.2004 25.5002C48.7004 25.5002 47.6004 25.2002 46.9004 24.6002C46.5004 24.2002 46.3004 23.8002 46.3004 23.2002C46.7004 23.1002 47.1004 23.0002 47.5004 23.0002C48.5004 22.8002 49.6004 22.7002 50.6004 22.6002C51.6004 22.5002 52.7004 22.5002 53.7004 22.5002C54.8004 22.5002 55.8004 22.6002 56.9004 22.8002C55.9004 22.5002 54.8004 22.2002 53.8004 22.0002C52.7004 21.8002 51.7004 21.7002 50.6004 21.6002C49.5004 21.5002 48.4004 21.5002 47.4004 21.5002C47.1004 21.5002 46.8004 21.5002 46.5004 21.5002C46.6004 21.1002 46.8004 20.9002 47.1004 20.6002C47.7004 20.1002 48.7004 19.9002 50.0004 19.9002C50.2004 19.9002 50.4004 19.9002 50.7004 19.9002C52.9004 20.0002 55.7004 21.5002 57.5004 22.6002C55.8004 23.0002 54.8004 23.6002 53.8004 24.1002Z" fill="black"/>
</svg>
