<svg width="64" height="64" viewBox="0 0 64 64" fill="none" xmlns="http://www.w3.org/2000/svg">
<path d="M59 61H57.91C57.6465 59.4505 56.7854 58.0663 55.5119 57.1451C55.9365 56.2837 56.1016 55.3176 55.9872 54.3641C55.8728 53.4106 55.4837 52.511 54.8674 51.7745C54.2511 51.0381 53.4341 50.4966 52.5157 50.2159C51.5973 49.9352 50.6172 49.9275 49.6945 50.1936L49.1174 45H50C50.7954 44.9991 51.5579 44.6828 52.1204 44.1204C52.6828 43.5579 52.9991 42.7954 53 42V40C52.9991 39.2046 52.6828 38.4421 52.1204 37.8796C51.5579 37.3172 50.7954 37.0009 50 37H49V36C48.995 31.4929 47.2023 27.1718 44.0153 23.9847C40.8282 20.7977 36.5071 19.005 32 19H30.8989C30.7011 18.0402 30.2264 17.1594 29.5335 16.4665C28.8406 15.7736 27.9598 15.2989 27 15.1011V12.5416C27.5948 12.2023 28.0405 11.6522 28.2491 11H30C31.8559 10.9979 33.6351 10.2597 34.9474 8.94738C36.2597 7.63509 36.9979 5.85586 37 4C37 3.20435 36.6839 2.44129 36.1213 1.87868C35.5587 1.31607 34.7956 1 34 1C33.2044 1 32.4413 1.31607 31.8787 1.87868C31.3161 2.44129 31 3.20435 31 4C30.9998 4.26514 30.8943 4.51936 30.7068 4.70684C30.5194 4.89433 30.2651 4.99976 30 5H27.2557C27.0511 4.41589 26.6702 3.90974 26.1655 3.55147C25.6609 3.19321 25.0574 3.00051 24.4385 3H23.5615C22.9426 3.00051 22.3391 3.19321 21.8345 3.55147C21.3298 3.90974 20.9489 4.41589 20.7443 5H18C17.7349 4.99976 17.4806 4.89433 17.2932 4.70684C17.1057 4.51936 17.0002 4.26514 17 4C17 3.20435 16.6839 2.44129 16.1213 1.87868C15.5587 1.31607 14.7956 1 14 1C13.2044 1 12.4413 1.31607 11.8787 1.87868C11.3161 2.44129 11 3.20435 11 4C11.0021 5.85586 11.7403 7.63509 13.0526 8.94738C14.3649 10.2597 16.1441 10.9979 18 11H19.7509C19.9595 11.6522 20.4052 12.2023 21 12.5416V15.1016C20.0403 15.2994 19.1596 15.774 18.4666 16.4668C17.7737 17.1596 17.299 18.0403 17.1011 19H11V16C10.9991 15.2046 10.6828 14.4421 10.1204 13.8796C9.55794 13.3172 8.79538 13.0009 8 13H7C6.20462 13.0009 5.44206 13.3172 4.87964 13.8796C4.31722 14.4421 4.00087 15.2046 4 16V34C4.00087 34.7954 4.31722 35.5579 4.87964 36.1204C5.44206 36.6828 6.20462 36.9991 7 37H8C8.79538 36.9991 9.55794 36.6828 10.1204 36.1204C10.6828 35.5579 10.9991 34.7954 11 34V31H17.1011C17.333 32.1285 17.9469 33.1425 18.8393 33.8711C19.7317 34.5997 20.8479 34.9984 22 35H26C27.1521 34.9984 28.2683 34.5997 29.1607 33.8711C30.0531 33.1425 30.667 32.1285 30.8989 31H32C33.3256 31.0016 34.5965 31.5288 35.5338 32.4662C36.4712 33.4035 36.9984 34.6744 37 36V37H36C35.2046 37.0009 34.4421 37.3172 33.8796 37.8796C33.3172 38.4421 33.0009 39.2046 33 40V42C33.0009 42.7954 33.3172 43.5579 33.8796 44.1204C34.4421 44.6828 35.2046 44.9991 36 45H36.8825L36.4318 49.0574C36.308 49.0717 36.1804 49.072 36.0596 49.0951C35.3337 48.0787 34.2533 47.3712 33.0315 47.112C31.8097 46.8528 30.5352 47.0607 29.4591 47.6948C28.383 48.3289 27.5836 49.3431 27.2183 50.5374C26.853 51.7318 26.9485 53.0197 27.4858 54.1472C26.4311 54.9001 25.6519 55.9776 25.2673 57.2151C24.8827 58.4525 24.9138 59.7819 25.3559 61H24C23.7348 61 23.4804 61.1054 23.2929 61.2929C23.1054 61.4804 23 61.7348 23 62C23 62.2652 23.1054 62.5196 23.2929 62.7071C23.4804 62.8946 23.7348 63 24 63H59C59.2652 63 59.5196 62.8946 59.7071 62.7071C59.8946 62.5196 60 62.2652 60 62C60 61.7348 59.8946 61.4804 59.7071 61.2929C59.5196 61.1054 59.2652 61 59 61ZM40.5 50.4379C39.9169 49.8733 39.2048 49.4594 38.4256 49.2321L38.8953 45H47.1047L47.736 50.6858C47.2876 50.1776 46.7401 49.7662 46.1272 49.4769C45.5143 49.1875 44.8488 49.0263 44.1714 49.0031C43.494 48.9799 42.819 49.0952 42.1877 49.3419C41.5565 49.5886 40.9822 49.9615 40.5 50.4379ZM23 13H25V15H23V13ZM33 4C33 3.73478 33.1054 3.48043 33.2929 3.29289C33.4804 3.10536 33.7348 3 34 3C34.2652 3 34.5196 3.10536 34.7071 3.29289C34.8946 3.48043 35 3.73478 35 4C34.9984 5.3256 34.4712 6.59647 33.5338 7.53381C32.5965 8.47115 31.3256 8.99844 30 9H28.2805L27.7805 7H30C30.7954 6.99913 31.5579 6.68278 32.1204 6.12036C32.6828 5.55794 32.9991 4.79538 33 4ZM23.5615 5H24.4385C24.6617 4.99989 24.8784 5.07443 25.0543 5.21176C25.2302 5.34908 25.3552 5.54129 25.4092 5.7578L26.4092 9.7578C26.4458 9.90524 26.4484 10.0591 26.4167 10.2077C26.3851 10.3563 26.32 10.4957 26.2265 10.6154C26.1329 10.7351 26.0134 10.8319 25.8769 10.8986C25.7403 10.9652 25.5904 10.9999 25.4385 11H22.5615C22.4096 10.9999 22.2597 10.9652 22.1231 10.8986C21.9866 10.8319 21.8671 10.7351 21.7735 10.6154C21.68 10.4957 21.6149 10.3563 21.5833 10.2077C21.5516 10.0591 21.5542 9.90524 21.5908 9.7578L22.5908 5.7578C22.6448 5.54129 22.7698 5.34908 22.9457 5.21176C23.1216 5.07443 23.3383 4.99989 23.5615 5ZM13 4C13 3.73478 13.1054 3.48043 13.2929 3.29289C13.4804 3.10536 13.7348 3 14 3C14.2652 3 14.5196 3.10536 14.7071 3.29289C14.8946 3.48043 15 3.73478 15 4C15.0009 4.79538 15.3172 5.55794 15.8796 6.12036C16.4421 6.68278 17.2046 6.99913 18 7H20.22L19.72 9H18C16.6744 8.99844 15.4035 8.47115 14.4662 7.53381C13.5288 6.59647 13.0016 5.3256 13 4ZM9 34C8.99976 34.2651 8.89433 34.5194 8.70684 34.7068C8.51936 34.8943 8.26514 34.9998 8 35H7C6.73486 34.9998 6.48064 34.8943 6.29316 34.7068C6.10567 34.5194 6.00024 34.2651 6 34V16C6.00024 15.7349 6.10567 15.4806 6.29316 15.2932C6.48064 15.1057 6.73486 15.0002 7 15H8C8.26514 15.0002 8.51936 15.1057 8.70684 15.2932C8.89433 15.4806 8.99976 15.7349 9 16V34ZM11 21H17V29H11V21ZM26 33H22C21.2046 32.9991 20.4421 32.6828 19.8796 32.1204C19.3172 31.5579 19.0009 30.7954 19 30V20C19.0009 19.2046 19.3172 18.4421 19.8796 17.8796C20.4421 17.3172 21.2046 17.0009 22 17H26C26.7954 17.0009 27.5579 17.3172 28.1204 17.8796C28.6828 18.4421 28.9991 19.2046 29 20V30C28.9991 30.7954 28.6828 31.5579 28.1204 32.1204C27.5579 32.6828 26.7954 32.9991 26 33ZM32 29H31V21H32C35.9769 21.0044 39.7896 22.5862 42.6017 25.3983C45.4138 28.2104 46.9956 32.0231 47 36V37H39V36C38.9979 34.1441 38.2597 32.3649 36.9474 31.0526C35.6351 29.7403 33.8559 29.0021 32 29ZM35 42V40C35.0002 39.7349 35.1057 39.4806 35.2932 39.2932C35.4806 39.1057 35.7349 39.0002 36 39H50C50.2651 39.0002 50.5194 39.1057 50.7068 39.2932C50.8943 39.4806 50.9998 39.7349 51 40V42C50.9998 42.2651 50.8943 42.5194 50.7068 42.7068C50.5194 42.8943 50.2651 42.9998 50 43H36C35.7349 42.9998 35.4806 42.8943 35.2932 42.7068C35.1057 42.5194 35.0002 42.2651 35 42ZM29 52C28.9989 51.4036 29.176 50.8204 29.5085 50.3253C29.841 49.8301 30.3137 49.4455 30.8662 49.2208C31.4186 48.9961 32.0256 48.9414 32.6093 49.0638C33.193 49.1863 33.7269 49.4802 34.1425 49.908C33.0636 50.6624 32.326 51.8122 32.09 53.1074C31.1614 52.85 30.1742 52.9017 29.2775 53.2547C29.095 52.8616 29.0003 52.4334 29 52ZM27 59C27.0001 58.178 27.2534 57.3759 27.7256 56.703C28.1977 56.03 28.8657 55.5189 29.6387 55.2391C30.4117 54.9594 31.2521 54.9245 32.0455 55.1394C32.839 55.3543 33.547 55.8084 34.0732 56.44C34.2429 56.6438 34.4867 56.7718 34.7508 56.7959C35.0149 56.82 35.2778 56.7381 35.4816 56.5684C35.6854 56.3987 35.8134 56.1549 35.8375 55.8908C35.8616 55.6267 35.7797 55.3638 35.61 55.16C35.1614 54.6237 34.6226 54.1698 34.0179 53.8188C34.0615 53.0394 34.4078 52.3078 34.9831 51.7801C35.5583 51.2523 36.317 50.9702 37.0973 50.9939C37.8776 51.0175 38.6177 51.345 39.16 51.9066C39.7023 52.4682 40.0037 53.2194 40 54C40 54.0349 39.991 54.0682 39.99 54.103C38.8637 54.3369 37.8523 54.9514 37.1257 55.8432C36.3991 56.735 36.0016 57.8497 36 59C36 59.2652 36.1054 59.5196 36.2929 59.7071C36.4804 59.8946 36.7348 60 37 60C37.2652 60 37.5196 59.8946 37.7071 59.7071C37.8946 59.5196 38 59.2652 38 59C38 58.3393 38.218 57.6971 38.6203 57.173C39.0225 56.6489 39.5865 56.2722 40.2247 56.1014C40.8629 55.9305 41.5397 55.9751 42.15 56.2282C42.7603 56.4812 43.27 56.9287 43.6 57.501C43.7353 57.7258 43.9536 57.8884 44.2076 57.9537C44.4617 58.019 44.7313 57.9819 44.9583 57.8503C45.1853 57.7187 45.3514 57.5032 45.421 57.2503C45.4905 56.9973 45.4578 56.7271 45.33 56.498C44.973 55.8869 44.4907 55.3583 43.9149 54.9468C43.339 54.5353 42.6826 54.2504 41.9888 54.1106C41.99 54.0734 42 54.0373 42 54C41.9973 53.3754 41.8766 52.7569 41.6442 52.1771C41.9457 51.7787 42.3429 51.4629 42.7989 51.2589C43.2549 51.0548 43.7551 50.9692 44.253 51.0099C44.751 51.0505 45.2306 51.2162 45.6475 51.4916C46.0643 51.767 46.405 52.1431 46.6378 52.5851C46.3879 53.0242 46.207 53.4991 46.1016 53.9932C46.0543 54.2506 46.1098 54.5162 46.2562 54.7331C46.4025 54.9501 46.6281 55.101 46.8845 55.1535C47.1408 55.206 47.4075 55.1559 47.6274 55.0141C47.8473 54.8722 48.0028 54.6497 48.0605 54.3945C48.1442 53.9789 48.3151 53.5858 48.5618 53.241C48.8086 52.8963 49.1256 52.6077 49.492 52.3944C49.8583 52.1811 50.2658 52.0479 50.6874 52.0035C51.109 51.9591 51.5352 52.0046 51.938 52.137C52.3408 52.2693 52.7109 52.4855 53.024 52.7714C53.3371 53.0572 53.5861 53.4061 53.7545 53.7952C53.9229 54.1842 54.007 54.6046 54.0011 55.0285C53.9953 55.4524 53.8996 55.8702 53.7205 56.2545C52.5451 55.9006 51.2894 55.9164 50.1233 56.2998C48.9572 56.6832 47.9371 57.4157 47.2011 58.3981C47.118 58.5027 47.0567 58.6228 47.0209 58.7514C46.985 58.8801 46.9752 59.0146 46.9922 59.1471C47.0091 59.2795 47.0524 59.4072 47.1195 59.5227C47.1866 59.6382 47.2762 59.739 47.3829 59.8193C47.4896 59.8996 47.6114 59.9577 47.7409 59.9901C47.8704 60.0226 48.0051 60.0288 48.1371 60.0084C48.2691 59.9879 48.3956 59.9413 48.5093 59.8711C48.6229 59.801 48.7214 59.7088 48.7988 59.6C49.2495 58.9973 49.8615 58.5344 50.5641 58.2647C51.2667 57.9951 52.0313 57.9297 52.7695 58.0761C53.5076 58.2225 54.1894 58.5747 54.7359 59.0921C55.2824 59.6095 55.6714 60.2709 55.858 61H27.5471C27.1911 60.3935 27.0023 59.7033 27 59Z" fill="black"/>
</svg>
