<svg width="38" height="38" viewBox="0 0 38 38" fill="none" xmlns="http://www.w3.org/2000/svg">
<g clip-path="url(#clip0)">
<path d="M9.63498 21.0495C9.41941 20.8358 9.24838 20.5815 9.13183 20.3012C9.01527 20.021 8.9555 19.7204 8.95597 19.4169L8.9555 17.9445C8.95549 17.6409 9.01527 17.3403 9.13143 17.0598C9.2476 16.7794 9.41787 16.5245 9.63252 16.3099C9.84718 16.0952 10.102 15.9249 10.3825 15.8088C10.6629 15.6926 10.9635 15.6328 11.2671 15.6328L20.3132 15.6333C20.4424 15.6332 20.5662 15.5819 20.6575 15.4906C20.7489 15.3992 20.8002 15.2754 20.8003 15.1462V13.621C20.8003 12.7291 21.2019 12.4031 21.4415 12.2878C21.681 12.1724 22.1873 12.0632 22.8831 12.6207L28.5804 17.1861C29.0698 17.5821 29.342 18.1112 29.342 18.6828C29.342 19.2544 29.0721 19.7858 28.5804 20.1795L22.8835 24.7406C22.1877 25.2982 21.682 25.1884 21.4419 25.0736C21.2019 24.9587 20.8008 24.6322 20.8008 23.7403L20.8008 22.2151C20.8005 22.086 20.7491 21.9623 20.6578 21.871C20.5665 21.7797 20.4428 21.7283 20.3137 21.728L11.2676 21.7285C10.9641 21.7289 10.6635 21.6691 10.3833 21.5525C10.103 21.436 9.84869 21.265 9.63498 21.0495ZM21.4611 13.6215L21.4611 15.1467C21.4611 15.2974 21.4315 15.4466 21.3738 15.5858C21.3162 15.7251 21.2316 15.8516 21.1251 15.9581C21.0185 16.0647 20.892 16.1492 20.7528 16.2068C20.6136 16.2645 20.4644 16.2941 20.3137 16.2941L11.2671 16.2941C10.8293 16.2942 10.4095 16.4681 10.0999 16.7777C9.79031 17.0873 9.61636 17.5071 9.6163 17.9449L9.6163 19.4169C9.61815 19.8543 9.79272 20.2732 10.102 20.5825C10.4113 20.8917 10.8302 21.0663 11.2676 21.0682L20.3137 21.0677C20.4644 21.0677 20.6136 21.0973 20.7528 21.155C20.892 21.2126 21.0185 21.2971 21.1251 21.4037C21.2316 21.5102 21.3162 21.6367 21.3738 21.776C21.4315 21.9152 21.4611 22.0644 21.4611 22.2151L21.4634 23.7426C21.4634 24.1246 21.5615 24.4011 21.7319 24.4781C21.9024 24.5552 22.1765 24.4641 22.4749 24.2255L28.1634 19.6644C28.4954 19.3987 28.6775 19.0503 28.677 18.6837C28.6766 18.3171 28.494 17.9683 28.1634 17.703L22.4707 13.1368C22.1723 12.8981 21.8949 12.8038 21.7277 12.8841C21.5606 12.9644 21.463 13.2423 21.4592 13.6196L21.4611 13.6215Z" fill="black"/>
</g>
<defs>
<clipPath id="clip0">
<rect width="26.4171" height="26.4171" fill="white" transform="translate(18.6797) rotate(45)"/>
</clipPath>
</defs>
</svg>
