<svg width="65" height="65" viewBox="0 0 65 65" fill="none" xmlns="http://www.w3.org/2000/svg">
<path d="M38.763 25.5616C36.0034 20.8534 34.2061 15.6453 33.4752 10.2388C33.1728 7.98146 32.2275 5.8584 30.752 4.1221C29.756 2.94243 28.5344 1.97309 27.1587 1.27084C25.783 0.568584 24.2808 0.14754 22.7402 0.0323598C21.1995 -0.08282 19.6513 0.11018 18.1863 0.600057C16.7212 1.08993 15.3688 1.86684 14.2081 2.88528C12.069 4.76428 10.6738 7.34573 10.2746 10.1628C10.0492 11.7395 9.73267 13.3018 9.32665 14.8419C8.34222 18.5668 6.84146 22.136 4.86792 25.446C1.71126 30.7389 0.0305136 36.7792 0.000155084 42.9399C-0.0447693 55.0147 9.67624 64.8751 21.6707 64.9196C24.9353 64.9351 28.1604 64.2073 31.1012 62.7914H31.1024C34.8099 60.9996 37.9384 58.2031 40.1313 54.7209C42.3241 51.2388 43.4928 47.2112 43.5042 43.0976C43.5174 36.9346 41.8805 30.8802 38.763 25.5616Z" fill="#37B678"/>
<path d="M43.505 43.0985C43.4936 47.2122 42.3249 51.2397 40.132 54.7219C37.9392 58.204 34.8107 61.0005 31.1032 62.7924H31.102C27.0521 61.3061 23.5598 58.6086 21.1009 55.0676C18.642 51.5267 17.3363 47.3145 17.3617 43.0053C17.3737 40.0223 17.7865 37.0543 18.5892 34.1809C19.3906 31.3106 20.5692 28.5589 22.0943 25.9978C24.1139 22.6114 25.6492 18.9594 26.6556 15.1481C27.0717 13.5723 27.3955 11.9735 27.6255 10.36C27.9579 7.99572 29.0563 5.80513 30.7528 4.12305C32.2283 5.85935 33.1736 7.98241 33.476 10.2397C34.2069 15.6463 36.0042 20.8544 38.7638 25.5626C41.8813 30.8812 43.5182 36.9356 43.505 43.0985Z" fill="#00A653"/>
<path d="M43.17 64.047H43.1699C31.6773 64.0043 22.3956 54.5911 22.4386 43.0221V43.022C22.4673 37.0322 24.1017 31.1593 27.172 26.0139C29.191 22.6274 30.7263 18.9758 31.7333 15.1649C32.149 13.5888 32.4729 11.9901 32.7034 10.3766C33.4708 5.00711 38.0171 1.00937 43.406 1.02937H43.406C48.791 1.04936 53.3105 5.07424 54.0371 10.4455C54.7851 15.9771 56.6237 21.3057 59.4468 26.123C62.4792 31.2935 64.071 37.1802 64.0571 43.1723L64.0571 43.1765C64.0141 54.7456 54.6626 64.0896 43.17 64.047Z" fill="#D4E496"/>
<path d="M56.0707 42.7316C56.0441 49.8744 50.282 55.6435 43.2007 55.6172C36.1193 55.5909 30.4003 49.7792 30.4269 42.6364C30.4534 35.4936 36.225 27.1886 43.3063 27.2149C50.3877 27.2412 56.0973 35.5888 56.0707 42.7316Z" fill="#B28966"/>
<path d="M34.2354 42.6506C34.2596 36.1605 39.0268 28.7117 45.2099 27.424C44.5844 27.288 43.9464 27.2179 43.3063 27.2149C36.225 27.1886 30.4534 35.4936 30.4269 42.6364C30.4003 49.7792 36.1193 55.5909 43.2007 55.6172C43.8381 55.6196 44.4748 55.5744 45.1055 55.4821C38.9308 54.5312 34.2113 49.1406 34.2354 42.6506Z" fill="#8B6847"/>
<path d="M60.2581 25.6407C57.4985 20.9325 55.7012 15.7244 54.9703 10.3179C54.5931 7.49939 53.2168 4.90934 51.0911 3.01768C48.9904 1.15082 46.2839 0.107021 43.4721 0.0794008L43.4086 0.0791608C40.5738 0.0701172 37.8334 1.09623 35.7032 2.96437C33.5642 4.84337 32.1689 7.42482 31.7698 10.2419C31.5443 11.8186 31.2278 13.3809 30.8218 14.921C29.8373 18.6459 28.3366 22.2151 26.363 25.525C23.2064 30.818 21.5256 36.8583 21.4953 43.019C21.4505 55.0418 31.0879 64.8702 43.0122 64.9968C43.1049 64.9985 43.1988 64.9988 43.2928 64.9992C43.3436 64.9994 43.3956 64.9995 43.4464 64.9985C44.2043 64.9917 44.9613 64.9449 45.7143 64.8585C56.5176 63.6243 64.9576 54.388 64.9993 43.1767C65.0126 37.0137 63.3756 30.9593 60.2581 25.6407ZM43.1729 63.0967C41.4269 63.0916 39.6893 62.8545 38.006 62.3916C29.5582 60.0639 23.3462 52.253 23.3805 43.026C23.41 37.2074 24.9978 31.5026 27.9793 26.5036C30.0438 23.0405 31.6139 19.3065 32.6443 15.4096C33.0682 13.7975 33.3994 12.1625 33.6362 10.5126C34.2632 6.12644 37.7163 2.71952 41.9437 2.08726C42.4262 2.01469 42.9136 1.9792 43.4016 1.9811C48.2715 1.99918 52.4421 5.69433 53.1019 10.5747C53.8667 16.2316 55.7472 21.6809 58.6346 26.6072C61.5799 31.6316 63.1265 37.3513 63.1141 43.1735C63.0731 54.1997 54.1276 63.1374 43.1729 63.0967Z" fill="#37B678"/>
</svg>
