<svg width="100" height="100" viewBox="0 0 100 100" fill="none" xmlns="http://www.w3.org/2000/svg">
<path fill-rule="evenodd" clip-rule="evenodd" d="M8.09355 60.3906C7.45293 63.1749 8.11544 66.1 9.89357 68.3344C11.6717 70.5719 14.3717 71.875 17.2311 71.875C32.0154 71.875 62.4998 71.875 62.4998 71.875C64.2248 71.875 65.6248 70.475 65.6248 68.75V34.375C65.6248 29.1969 61.4248 25 56.2498 25C47.4873 25 31.7342 25 23.7217 25C19.3561 25 15.5686 28.0124 14.5842 32.2656L8.09355 60.3906Z" fill="#EEEEEE"/>
<path fill-rule="evenodd" clip-rule="evenodd" d="M59.375 68.75C59.375 70.475 60.775 71.875 62.5 71.875H84.375C86.8625 71.875 89.2469 70.8875 91.0031 69.1281C92.7625 67.3719 93.75 64.9875 93.75 62.5C93.75 60.3531 93.75 58.0406 93.75 56.25C93.75 55.5938 92.1344 50.025 92.1156 50C90.4531 47.9469 86.9063 43.5719 84.15 40.1656C81.1813 36.5031 76.7219 34.375 72.0062 34.375C67.65 34.375 62.5 34.375 62.5 34.375C60.775 34.375 59.375 35.775 59.375 37.5V68.75Z" fill="#64DD17"/>
<path fill-rule="evenodd" clip-rule="evenodd" d="M75.4594 34.7578C78.85 35.5266 81.9219 37.411 84.15 40.1641C86.9063 43.5703 90.4531 47.9454 92.1156 49.9985C92.1344 50.0235 93.75 55.5922 93.75 56.2485C93.75 58.0391 93.75 60.3516 93.75 62.4985C93.75 64.986 92.7625 67.3704 91.0031 69.1266C89.2469 70.886 86.8625 71.8735 84.375 71.8735H62.5C60.775 71.8735 59.375 70.4735 59.375 68.7485V65.6235H75C77.4875 65.6235 79.8719 64.636 81.6281 62.8766C83.3875 61.1204 84.375 58.736 84.375 56.2485C84.375 53.311 84.375 50.0672 84.375 48.2703C84.375 46.6516 83.8188 45.0798 82.8 43.8204L75.4594 34.7578Z" fill="#5DCE15"/>
<path fill-rule="evenodd" clip-rule="evenodd" d="M92.1156 50L92.175 50.0719C93.1938 51.3313 93.75 52.9031 93.75 54.5218V56.25H75C73.275 56.25 71.875 54.85 71.875 53.125C71.875 51.4 73.275 50 75 50H92.1156Z" fill="#EEEEEE"/>
<path fill-rule="evenodd" clip-rule="evenodd" d="M84.375 50H92.1156L92.175 50.0719C93.1938 51.3313 93.75 52.9031 93.75 54.5218V56.25H84.375V50Z" fill="#E5E5E5"/>
<path fill-rule="evenodd" clip-rule="evenodd" d="M56.2485 25C61.4266 25 65.6235 29.1969 65.6235 34.375V68.75C65.6235 70.475 64.2235 71.875 62.4985 71.875C62.4985 71.875 32.0141 71.875 17.2297 71.875C14.3735 71.875 11.6735 70.5719 9.89223 68.3375C8.11411 66.1 7.45162 63.175 8.09537 60.3907L11.2141 46.875H53.1235C54.8485 46.875 56.2485 45.475 56.2485 43.75V25Z" fill="#E5E5E5"/>
<path fill-rule="evenodd" clip-rule="evenodd" d="M10.4924 50H49.9986C51.7236 50 53.1236 51.4 53.1236 53.125C53.1236 54.85 51.7236 56.25 49.9986 56.25H9.05176L10.4924 50Z" fill="#5DCE15"/>
<path fill-rule="evenodd" clip-rule="evenodd" d="M13.3781 37.5H50C51.725 37.5 53.125 38.9 53.125 40.625C53.125 42.35 51.725 43.75 50 43.75H11.9375L13.3781 37.5Z" fill="#64DD17"/>
<path d="M26.915 78.125C32.0927 78.125 36.29 73.9277 36.29 68.75C36.29 63.5723 32.0927 59.375 26.915 59.375C21.7374 59.375 17.54 63.5723 17.54 68.75C17.54 73.9277 21.7374 78.125 26.915 78.125Z" fill="#757575"/>
<path fill-rule="evenodd" clip-rule="evenodd" d="M31.7926 60.7422C34.4863 62.3922 36.2894 65.361 36.2894 68.7485C36.2894 73.9235 32.0863 78.1235 26.9144 78.1235C23.5269 78.1235 20.5551 76.3235 18.9082 73.6298C20.3301 74.4985 22.0019 74.9985 23.7894 74.9985C28.9613 74.9985 33.1644 70.7985 33.1644 65.6235C33.1644 63.836 32.6613 62.1641 31.7926 60.7422Z" fill="#656565"/>
<path d="M68.75 78.125C73.9277 78.125 78.125 73.9277 78.125 68.75C78.125 63.5723 73.9277 59.375 68.75 59.375C63.5723 59.375 59.375 63.5723 59.375 68.75C59.375 73.9277 63.5723 78.125 68.75 78.125Z" fill="#757575"/>
<path fill-rule="evenodd" clip-rule="evenodd" d="M73.6266 60.7422C76.3203 62.3922 78.1234 65.361 78.1234 68.7485C78.1234 73.9235 73.9203 78.1235 68.7484 78.1235C65.3609 78.1235 62.3891 76.3235 60.7422 73.6298C62.1641 74.4985 63.8359 74.9985 65.6234 74.9985C70.7953 74.9985 74.9984 70.7985 74.9984 65.6235C74.9984 63.836 74.4953 62.1641 73.6266 60.7422Z" fill="#656565"/>
</svg>
