<svg width="82" height="80" viewBox="0 0 82 80" fill="none" xmlns="http://www.w3.org/2000/svg">
<path d="M10.25 60.1036C10.25 50.3181 13.7906 37.271 31.2815 23.1368H51.817C69.3079 37.271 73.2175 50.3181 73.2175 60.1036V59.2421V61.191C73.2175 70.226 60.2159 77.4995 44.0659 77.4995H39.4016C23.2516 77.4995 10.25 70.226 10.25 61.191V59.2421V60.1036ZM31.6384 18.7248C28.6987 16.0931 27.0481 12.5296 27.0481 8.81456L27.0461 8.92961C27.046 7.52236 27.7388 6.2218 28.8634 5.51805C29.988 4.8143 31.3735 4.8143 32.498 5.51805C33.6226 6.2218 34.3154 7.52236 34.3154 8.92961H34.3103C34.3102 7.52236 35.003 6.2218 36.1276 5.51805C37.2521 4.8143 38.6377 4.8143 39.7622 5.51805C40.8868 6.2218 41.5796 7.52236 41.5796 8.92961H41.5778C41.5778 7.52236 42.2705 6.2218 43.3951 5.51805C44.5197 4.8143 45.9052 4.8143 47.0298 5.51805C48.1544 6.2218 48.8471 7.52236 48.8471 8.92961H48.8419C48.8419 7.52236 49.5347 6.2218 50.6593 5.51805C51.7839 4.8143 53.1694 4.8143 54.2939 5.51805C55.4185 6.2218 56.1113 7.52236 56.1113 8.92961L56.1093 8.81456C56.1093 12.5296 54.4587 16.0931 51.519 18.7248" fill="#F05542"/>
<path d="M57.8422 52.4988C57.8422 60.7783 50.9276 67.4995 42.424 67.4995C33.9181 67.4995 27.0957 60.7783 27.0957 52.4988C27.0957 44.2223 33.9181 37.501 42.424 37.501C50.9276 37.501 57.8422 44.2223 57.8422 52.4988Z" fill="#F8B84E"/>
<path fill-rule="evenodd" clip-rule="evenodd" d="M36.1104 43.8457V46.3457H38.7429C41.8369 46.3457 42.9871 48.1899 42.9871 50.0762C42.9871 51.9624 41.8369 53.8018 38.7429 53.8018H36.1104V56.3018H38.7429C43.0192 56.3018 45.5496 53.1667 45.5496 50.0762C45.5496 46.9859 43.0192 43.8457 38.7429 43.8457H36.1104Z" fill="#2B4255"/>
<path fill-rule="evenodd" clip-rule="evenodd" d="M36.1693 48.8252V51.3252H48.9026V48.8252H36.1693ZM36.1693 43.8252V46.3252H48.9026V43.8252H36.1693ZM37.8269 53.7877L36.0352 55.5797L44.6886 63.8267L46.4803 62.0396L37.8269 53.7877Z" fill="#2B4255"/>
<path fill-rule="evenodd" clip-rule="evenodd" d="M30.9062 18.0371V23.4677H52.23V18.0371" fill="#2B4255"/>
</svg>
