<svg width="99" height="99" viewBox="0 0 99 99" fill="none" xmlns="http://www.w3.org/2000/svg">
<path d="M53.3685 55.8944C56.1595 56.6751 59.0176 55.1389 59.7635 52.461C60.1491 51.0759 60.1323 49.6069 59.7216 48.205C59.4534 47.2816 59.3193 46.333 59.3193 45.3844C59.3193 44.9898 59.3445 44.6037 59.3947 44.2091C59.5624 42.9164 58.7159 41.6823 57.4084 41.313C56.1009 40.952 54.7431 41.5648 54.2151 42.7569C53.6703 43.9825 52.8824 45.0906 51.885 46.0056C50.8122 46.9961 50.0411 48.2469 49.6556 49.6321C48.918 52.3099 50.5775 55.1137 53.3685 55.8944Z" fill="#D4E496"/>
<path d="M51.6252 50.0853C51.1643 51.7391 52.1868 53.4684 53.905 53.9469C55.6231 54.4254 57.3916 53.4768 57.8442 51.823C58.3051 50.1693 57.4419 47.8524 55.7237 47.3739C54.0139 46.8954 52.0862 48.4316 51.6252 50.0853Z" fill="#B28966"/>
<path d="M56.9302 51.5629C57.3493 50.0603 56.6788 48.012 55.2624 47.29C55.4216 47.2984 55.5808 47.332 55.7401 47.374C57.4583 47.8525 58.3132 50.1694 57.8606 51.8231C57.3996 53.4769 55.6395 54.4255 53.9213 53.947C53.7705 53.905 53.6112 53.8462 53.4688 53.7875C55.0109 53.9889 56.5112 53.0655 56.9302 51.5629Z" fill="#8B6847"/>
<path d="M51.7261 45.8462C52.6983 44.948 53.4778 43.8651 54.0058 42.6647C54.2824 42.0435 54.7853 41.5314 55.4223 41.246C56.0509 40.9606 56.7801 40.9018 57.4589 41.0865L57.4757 41.0949C58.163 41.2879 58.7581 41.7161 59.152 42.2869C59.5459 42.8661 59.7219 43.5629 59.6297 44.2345C59.5794 44.6122 59.5543 44.9984 59.5543 45.3845C59.5459 46.3163 59.68 47.2398 59.9398 48.138C60.3589 49.5735 60.3757 51.0845 59.9817 52.5116C59.2107 55.2902 56.2353 56.902 53.3353 56.1129C53.3102 56.1045 53.2934 56.1045 53.2683 56.0961C53.2599 56.0961 53.2431 56.0877 53.2347 56.0877C53.0504 56.0373 52.8743 55.9702 52.6899 55.903C50.1504 54.8789 48.7088 52.159 49.4296 49.5735C49.8319 48.1464 50.6281 46.862 51.7261 45.8462ZM53.4275 55.6763C53.855 55.7939 54.2908 55.861 54.7266 55.8694C56.9225 55.9114 58.9425 54.5347 59.5375 52.4024C59.9063 51.0593 59.8979 49.6322 59.504 48.2723C59.2274 47.3321 59.0933 46.3583 59.0933 45.3845C59.0933 44.9816 59.1185 44.5786 59.1688 44.1841C59.3029 43.1264 58.691 42.1022 57.702 41.6657C57.5931 41.6153 57.4757 41.5734 57.3584 41.5398C56.1766 41.2124 54.9278 41.7748 54.45 42.8577C53.8969 44.1085 53.0839 45.2418 52.0613 46.182C51.0221 47.139 50.2677 48.3562 49.899 49.6994C49.1865 52.2513 50.7706 54.9292 53.4275 55.6763Z" fill="#37B678"/>
<path d="M57.5349 52.6114C57.56 52.5442 57.5349 52.4603 57.4678 52.4267L57.1828 52.2756C57.1158 52.242 57.032 52.2588 56.9901 52.3259C56.8392 52.5442 56.4956 53.0227 56.1519 53.3081C55.8334 53.5684 55.2048 53.7698 54.5511 53.795C53.2604 53.8538 52.3217 54.1811 51.8439 55.0962C51.1231 56.4561 51.9529 58.3113 53.6962 59.2347C55.4395 60.1581 57.4343 59.7972 58.1551 58.4372C58.6412 57.5138 58.2724 56.4729 57.6857 55.4403C57.3505 54.8527 57.1577 54.2819 57.1996 53.8621C57.2415 53.4256 57.4427 52.8548 57.5349 52.6114Z" fill="#E289B0"/>
<path fill-rule="evenodd" clip-rule="evenodd" d="M51.668 57.1442C51.9362 57.5891 52.3133 58.0005 52.7743 58.353C54.35 59.5367 56.3783 59.5031 57.3086 58.2775C57.9372 57.4464 57.7445 56.3635 57.3338 55.2554C57.1494 54.7518 57.0488 54.2733 57.0739 53.8955C57.0656 54.3068 57.2583 54.8357 57.5601 55.373C58.1468 56.4055 58.5155 57.4464 58.0294 58.3698C57.3086 59.7298 55.3139 60.0907 53.5705 59.1673C52.6486 58.6804 51.9865 57.9333 51.668 57.1442Z" fill="#C7638F"/>
<path d="M55.1967 56.6989C54.5179 57.9917 53.906 59.0075 53.8306 58.9655C53.7552 58.9235 54.2497 57.849 54.9285 56.5563C55.6074 55.2635 56.2193 54.2477 56.2947 54.2897C56.3701 54.3317 55.8756 55.4146 55.1967 56.6989ZM57.334 57.7483C56.7473 58.8564 55.1632 59.1754 55.0962 59.1334C55.0207 59.0914 56.4875 58.7137 57.0742 57.6056C57.6609 56.4975 57.1496 55.0704 57.2166 55.104C57.2921 55.1543 57.9207 56.6402 57.334 57.7483ZM52.5985 55.2467C52.0118 56.3548 52.6404 57.849 52.7159 57.8826C52.7913 57.9162 52.2717 56.4975 52.8584 55.381C53.4451 54.2729 54.9118 53.8952 54.8364 53.8532C54.7609 53.8112 53.1852 54.1302 52.5985 55.2467Z" fill="#C54C82"/>
<path d="M56.2105 57.3207C55.5483 58.5799 54.3917 59.2599 54.3582 59.2431C54.3246 59.2263 55.1712 58.37 55.8333 57.1192C56.4954 55.86 56.7217 54.6848 56.7552 54.7016C56.7888 54.7184 56.8726 56.0699 56.2105 57.3207ZM53.7128 56.0028C53.0507 57.262 53.1345 58.6051 53.168 58.6219C53.2015 58.6387 53.4278 57.455 54.09 56.2042C54.7521 54.945 55.5986 54.0972 55.5651 54.0804C55.5399 54.0636 54.3749 54.7436 53.7128 56.0028Z" fill="#C54C82"/>
<path fill-rule="evenodd" clip-rule="evenodd" d="M52.5644 54.7009C52.5728 54.852 52.489 55.0787 52.3884 55.1962C52.313 55.2886 52.2459 55.3977 52.1789 55.5152C52.0867 55.6915 51.9777 55.7586 51.9358 55.6747C51.8855 55.5907 51.9274 55.3725 52.0112 55.1962C52.1202 54.978 52.2459 54.7933 52.3716 54.6422C52.4722 54.5246 52.556 54.5498 52.5644 54.7009Z" fill="#FFCFC9"/>
<path d="M43.7304 51.1253L44.0657 52.7119C44.1159 52.9302 44.2668 53.0897 44.4428 53.0897H46.5298C46.6974 53.0897 46.8399 52.9553 46.8985 52.7623L48.2479 48.1368H47.3344L46.4795 50.4789L46.1275 46.6426H45.063L44.6775 50.3698L43.9986 47.2638L43.0264 47.4904L43.7304 51.1253Z" fill="#9AD052"/>
<path d="M49.9489 43.8896C49.8483 42.6052 48.6582 41.5895 47.1998 41.5895C46.9651 41.5895 46.7388 41.6147 46.5209 41.665C46.1186 40.8843 45.2889 40.3555 44.325 40.3555C42.9672 40.3555 41.8693 41.4216 41.8693 42.7311C41.8693 42.7983 41.8693 42.8571 41.8777 42.9242C40.7043 43.1928 39.8242 44.1666 39.8242 45.3251C39.8242 46.6934 41.0395 47.8015 42.5314 47.8015C43.1013 47.8015 43.6294 47.642 44.0652 47.365C44.4591 47.7259 44.962 47.9442 45.5152 47.9442C45.8672 47.9442 46.194 47.8602 46.4958 47.7007C46.9819 48.2212 47.6859 48.5402 48.4738 48.5402C49.9405 48.5402 51.1223 47.4069 51.1223 46.005C51.1223 45.1236 50.6529 44.3429 49.9489 43.8896Z" fill="#5FA43D"/>
<path d="M42.5144 47.4393C41.8523 47.4393 41.3746 47.1119 41.0645 46.7929C40.637 46.348 40.4526 45.8359 40.4443 45.8108C40.4023 45.6932 40.461 45.5673 40.57 45.5253C40.6789 45.4834 40.7963 45.5421 40.8382 45.6513C40.8633 45.7268 41.4752 47.3973 43.1011 46.8936C43.2101 46.8601 43.3274 46.9272 43.361 47.0447C43.3945 47.1623 43.3274 47.2798 43.2185 47.3134C42.9587 47.4057 42.724 47.4393 42.5144 47.4393Z" fill="#477D27"/>
<path d="M45.4568 47.583C44.8701 47.583 44.5097 47.1801 44.3924 46.9282C44.3421 46.8191 44.384 46.6848 44.4846 46.6344C44.5852 46.5841 44.7109 46.626 44.7612 46.7352C44.7696 46.7603 45.0378 47.2724 45.6832 47.1213C45.7921 47.0961 45.9011 47.1717 45.9262 47.2892C45.9514 47.4067 45.8759 47.5242 45.767 47.5494C45.658 47.5746 45.5574 47.583 45.4568 47.583Z" fill="#477D27"/>
<path d="M48.6916 48.0371C48.5659 48.0371 48.4904 48.0287 48.4821 48.0287C48.3647 48.0119 48.2893 47.9028 48.306 47.7852C48.3228 47.6677 48.4234 47.5838 48.5407 47.6006C48.6078 47.609 50.0829 47.7936 50.5355 46.0056C50.569 45.8881 50.678 45.8209 50.7869 45.8461C50.8959 45.8797 50.9629 45.9972 50.9378 46.1147C50.6528 47.2396 50.0075 47.7013 49.513 47.8944C49.1777 48.0119 48.876 48.0371 48.6916 48.0371Z" fill="#477D27"/>
<path d="M42.649 42.2947C42.6322 42.2947 42.6154 42.2947 42.5987 42.2863C42.4897 42.2611 42.4143 42.1436 42.4394 42.026C42.4394 42.0092 42.5232 41.6735 42.7747 41.3209C43.0094 41.0019 43.4536 40.6074 44.1995 40.5738C44.3085 40.5654 44.4091 40.6577 44.4174 40.7836C44.4258 40.9012 44.3336 41.0103 44.2163 41.0103C43.0848 41.0607 42.8417 42.11 42.8417 42.1268C42.8333 42.2275 42.7495 42.2947 42.649 42.2947Z" fill="#C8FFBF"/>
<path d="M42.4136 43.1428C42.2963 43.1428 42.2041 43.0421 42.2041 42.9246C42.2041 42.8742 42.2041 42.6895 42.246 42.572C42.2795 42.4545 42.3969 42.3957 42.5058 42.4293C42.6148 42.4713 42.6734 42.5888 42.6399 42.7063C42.6315 42.7399 42.6231 42.849 42.6231 42.9162C42.6231 43.0421 42.531 43.1428 42.4136 43.1428Z" fill="#BFFFCB"/>
<path d="M38.1483 48.1876C38.0896 48.1708 36.6732 47.7931 35.5752 46.7353L35.9943 46.2988C36.9749 47.2474 38.2908 47.5916 38.2991 47.6L38.1483 48.1876Z" fill="#7ABD4C"/>
<path d="M38.0972 48.0616C38.0888 48.0448 36.907 46.4246 35.6582 45.7195L35.9516 45.1906C37.3177 45.9545 38.5414 47.6335 38.5917 47.709L38.0972 48.0616ZM38.7006 47.793C38.642 47.709 37.1668 45.7531 36.7562 44.007L37.3428 43.8643C37.7284 45.4844 39.1616 47.4068 39.1868 47.4236L38.7006 47.793Z" fill="#4FA812"/>
<path d="M38.5336 47.9523C38.5253 47.9355 37.3938 46.4832 36.5557 45.6186L36.9915 45.1904C37.8631 46.0719 38.9695 47.5157 39.0198 47.5745L38.5336 47.9523Z" fill="#7ABD4C"/>
<path d="M38.2574 47.2483C38.2574 47.2483 36.1704 48.6166 38.4334 51.3113C38.4334 51.3113 45.5157 60.1256 47.2255 59.9745C47.2255 59.9745 48.6084 60.4026 46.0772 55.7772C46.0772 55.7772 43.7723 51.454 41.8279 48.6502C41.8446 48.6502 40.1683 46.0815 38.2574 47.2483Z" fill="#EB5900"/>
<path d="M41.7608 49.5556C41.7691 49.5137 41.7608 49.4633 41.744 49.4213C40.7299 47.1212 39.59 47.4821 39.5481 47.4989C39.4559 47.5241 39.4056 47.65 39.414 47.7592C39.4308 47.8767 39.5146 47.9438 39.6068 47.9187C39.6487 47.9103 40.5706 47.65 41.459 49.6564C41.5009 49.7571 41.6015 49.7907 41.6769 49.7235C41.7272 49.6815 41.7524 49.6144 41.7608 49.5556Z" fill="#F48435"/>
<path d="M51.2906 49.5898C50.1926 49.5898 50.1927 49.9592 49.0947 49.9592C47.9967 49.9592 47.9967 49.5898 46.8988 49.5898C45.4404 49.5898 43.6133 50.3202 43.6133 52.8889C43.6133 56.9268 45.8092 60.2258 47.2676 60.2258C48.3655 60.2258 48.3655 59.8565 49.0947 59.8565C49.8239 59.8565 49.8239 60.2258 50.9218 60.2258C52.3802 60.2258 54.5761 56.9268 54.5761 52.8889C54.5761 50.3202 52.749 49.5898 51.2906 49.5898Z" fill="#DD2E44"/>
<path d="M48.7336 49.5901C48.7336 49.5901 47.9122 48.1211 46.5461 48.1211C45.4481 48.1211 44.9033 48.8514 44.9033 48.8514C44.9033 48.8514 46.0013 49.9511 46.8226 49.9511C47.6356 49.9511 48.7336 49.5901 48.7336 49.5901Z" fill="#77B255"/>
<path d="M49.0021 50.6894C49.153 50.6894 49.2787 50.5215 49.2787 50.32C49.2787 49.0608 48.9518 47.894 48.3735 47.1217C48.2645 46.979 48.0969 46.979 47.988 47.1217C47.879 47.2644 47.879 47.4995 47.988 47.6422C48.4573 48.2718 48.7255 49.2455 48.7255 50.32C48.7339 50.5215 48.8512 50.6894 49.0021 50.6894Z" fill="#662113"/>
<path d="M47.9791 50.5301C47.954 50.4965 47.9121 50.4629 47.8702 50.4545C45.5653 49.5647 45.0289 50.614 45.0121 50.656C44.9702 50.74 45.0205 50.8659 45.1043 50.933C45.1965 51.0086 45.3055 50.9918 45.3474 50.9078C45.3641 50.8743 45.8251 50.0432 47.845 50.8239C47.9456 50.8659 48.0378 50.8155 48.0462 50.7148C48.0462 50.6476 48.021 50.5804 47.9791 50.5301Z" fill="#EF6A7A"/>
<path d="M25.3513 38.7501C25.1083 38.7417 24.8904 38.7417 24.6976 38.7921C24.4126 38.8509 24.3204 38.9432 24.178 39.3377L23.9181 40.0849C23.8427 40.3031 23.8511 40.3367 24.069 40.4123L25.7453 41.0083L26.0638 40.1185C26.2482 39.6064 26.1643 39.5308 25.695 39.2454L25.7788 39.0187L27.3293 39.5728L27.2455 39.8078C26.7008 39.7155 26.5583 39.7407 26.3822 40.236L26.0638 41.1258L27.3461 41.5791C27.9915 41.8058 28.0502 41.7554 28.3435 41.1006L28.5614 41.1762L27.8155 43.2748L27.5976 43.1993C27.7568 42.5949 27.7317 42.5109 27.0947 42.2843L24.2199 41.2685C23.5745 41.0419 23.5158 41.1006 23.256 41.6631L23.0381 41.5875L23.8678 39.2286C24.1025 38.5738 24.1863 38.2968 24.2282 38.1709C24.4713 38.2464 25.0161 38.4059 25.3933 38.4983L25.3513 38.7501Z" fill="#171635"/>
<path d="M31.8217 35.2078C31.7714 35.2834 31.7211 35.359 31.6624 35.4345C31.2937 35.9634 31.0003 36.1396 30.4471 36.1732C29.9526 36.2068 29.3911 36.1816 28.9134 36.1816C28.6284 36.1816 28.5362 36.2404 28.3434 36.5594L28.2093 36.7693L29.2402 37.3989C29.8018 37.743 29.8772 37.6927 30.2544 37.1974L30.4555 37.3149L29.3408 39.1365L29.148 39.019C29.4246 38.4398 29.4246 38.3726 28.8631 38.0284L26.2313 36.4083C25.6698 36.0641 25.6027 36.1145 25.2256 36.6014L25.0244 36.4838L26.0888 34.7461C26.399 34.2425 26.6588 33.9486 26.9856 33.7975C27.3293 33.638 27.7316 33.638 28.1423 33.8899C28.7206 34.2425 28.8379 34.8301 28.7541 35.4345C29.0307 35.4429 29.6425 35.4345 30.07 35.4261C30.5729 35.4009 30.8243 35.3757 31.0757 35.3254C31.3691 35.2666 31.5283 35.1743 31.6708 35.04L31.8217 35.2078ZM28.1507 36.3495C28.3518 36.0137 28.4356 35.7619 28.4021 35.5184C28.3602 35.1491 28.1674 34.8805 27.807 34.6622C27.0946 34.2257 26.5582 34.5279 26.2565 35.0148C26.1391 35.2079 26.0972 35.3338 26.114 35.4009C26.1224 35.4849 26.181 35.5436 26.3487 35.6444L27.9663 36.6433L28.1507 36.3495Z" fill="#171635"/>
<path d="M33.9176 31.2132C34.0349 31.3895 34.4708 32.1114 34.5881 32.3297L31.9312 35.0831L31.7636 34.9236C32.2246 34.3612 32.2162 34.2856 31.7552 33.8323L29.5593 31.7001C29.0648 31.2216 28.9726 31.2552 28.5368 31.6329L28.3691 31.4734L30.037 29.7442C30.5567 29.2069 30.7578 28.9886 30.8165 28.9131C30.9506 29.039 31.4032 29.4252 31.7301 29.7022L31.5876 29.9036C31.3445 29.7693 31.1517 29.7022 30.9674 29.6602C30.7075 29.5847 30.5567 29.6686 30.2382 29.996L29.7521 30.4997C29.5761 30.676 29.5844 30.7095 29.7521 30.869L30.9757 32.0611L31.5624 31.4567C31.948 31.0537 31.8977 30.9446 31.5792 30.4997L31.7552 30.315L32.9286 31.4483L32.7526 31.6329C32.2748 31.314 32.1743 31.3056 31.7971 31.6917L31.2188 32.2961L32.3084 33.3538C32.7023 33.7316 32.8448 33.6728 33.1381 33.3874L33.6159 32.8921C33.9427 32.5564 33.9511 32.4472 33.926 32.1786C33.9092 31.9435 33.8003 31.6078 33.6997 31.3643L33.9176 31.2132Z" fill="#171635"/>
<path d="M35.4174 26.9575C35.0151 26.6134 34.5374 26.3111 33.9423 26.7225C33.4646 27.0499 33.5232 27.5284 33.7579 27.8642C34.0512 28.2923 34.4787 28.3259 35.2079 28.2335C36.2304 28.0992 36.7919 28.158 37.211 28.7708C37.6887 29.4591 37.4541 30.3909 36.6159 30.9702C36.2304 31.2388 35.8113 31.3647 35.4761 31.4487C35.3084 31.306 34.8978 30.8862 34.6128 30.5756L34.7804 30.3825C35.1995 30.7183 35.9035 31.0961 36.5573 30.6428C37.0015 30.3322 37.0685 29.8369 36.7836 29.4172C36.4567 28.9471 36.0628 28.9219 35.2917 28.9974C34.3697 29.0982 33.7663 29.0562 33.3472 28.4434C32.9365 27.8558 33.0539 26.9827 33.9171 26.3783C34.2859 26.1181 34.705 25.9754 34.8559 25.9082C35.0402 26.1265 35.2582 26.3699 35.5934 26.7561L35.4174 26.9575Z" fill="#171635"/>
<path d="M41.838 22.9103C41.268 23.2041 41.2261 23.2628 41.4692 23.8756L42.6174 26.7634C42.8605 27.3678 42.9359 27.3678 43.5394 27.1999L43.6232 27.4098L41.6368 28.1988L41.553 27.9806C42.1229 27.67 42.1648 27.6364 41.9302 27.0236L41.3602 25.5881L38.9799 26.5367L39.5499 27.9722C39.7845 28.5766 39.86 28.5766 40.4718 28.4087L40.5556 28.627L38.5692 29.4161L38.4854 29.1978C39.0386 28.904 39.0973 28.8536 38.8542 28.2492L37.706 25.3615C37.4629 24.7571 37.3875 24.7403 36.784 24.9166L36.7002 24.6983L38.6866 23.9092L38.7704 24.1275C38.2172 24.4045 38.1669 24.4884 38.41 25.0845L38.8626 26.2177L41.2429 25.2691L40.7903 24.1359C40.5556 23.5314 40.455 23.5147 39.86 23.6909L39.7762 23.4727L41.7625 22.6836L41.838 22.9103Z" fill="#171635"/>
<path d="M53.3791 25.8566C53.2366 26.226 52.9935 26.7716 52.8594 27.0151C52.6331 27.0486 52.0129 27.141 51.4262 27.0906C49.532 26.9395 48.7023 25.6048 48.8112 24.27C48.9369 22.675 50.236 21.6845 51.9878 21.8188C52.6583 21.8691 53.1947 22.0622 53.4377 22.121C53.4461 22.4736 53.4545 22.9688 53.488 23.355L53.2282 23.3886C53.1193 22.8429 52.9432 22.5071 52.5577 22.3141C52.3649 22.2049 52.0632 22.1294 51.7782 22.1126C50.5294 22.0119 49.7918 22.9101 49.6913 24.1777C49.5739 25.6635 50.2612 26.6877 51.4849 26.7884C52.2476 26.8472 52.675 26.5198 53.136 25.7643L53.3791 25.8566Z" fill="#171635"/>
<path d="M58.1482 23.1947C59.4222 23.6397 60.21 24.9996 59.6988 26.4603C59.154 28.0468 57.7292 28.6596 56.3714 28.1895C54.9465 27.7027 54.2844 26.2672 54.7705 24.8653C55.2231 23.5557 56.5725 22.6491 58.1482 23.1947ZM57.9052 23.4298C57.0922 23.1528 56.1367 23.6061 55.6673 24.9744C55.198 26.3259 55.55 27.5851 56.5809 27.9461C57.4358 28.2399 58.3075 27.795 58.802 26.3847C59.3384 24.8485 58.8522 23.7488 57.9052 23.4298Z" fill="#171635"/>
<path d="M63.3439 31.9004C63.2685 31.85 63.2014 31.7997 63.1176 31.7325C62.5979 31.3464 62.4387 31.0525 62.4135 30.4901C62.3884 29.9948 62.4303 29.4324 62.4471 28.9539C62.4555 28.6685 62.3968 28.5761 62.0867 28.3747L61.8771 28.232L61.215 29.2477C60.8546 29.8017 60.9049 29.8773 61.3826 30.2718L61.2569 30.4649L59.4717 29.2981L59.5974 29.105C60.1674 29.3988 60.2344 29.3988 60.5948 28.8448L62.2878 26.2508C62.6482 25.7052 62.5979 25.6296 62.1202 25.2351L62.2459 25.042L63.9473 26.1501C64.4418 26.4691 64.7268 26.7461 64.8693 27.0735C65.0201 27.4177 65.0118 27.829 64.7436 28.2235C64.3748 28.786 63.7881 28.8951 63.1846 28.7944C63.1679 29.0714 63.1595 29.6842 63.1595 30.1123C63.1679 30.616 63.193 30.8679 63.2265 31.1197C63.2768 31.4219 63.369 31.573 63.4947 31.7241L63.3439 31.9004ZM62.313 28.1984C62.6398 28.4082 62.8913 28.5006 63.1343 28.467C63.5031 28.4418 63.7713 28.2487 64.006 27.8962C64.4586 27.1994 64.1736 26.6454 63.6959 26.3348C63.5115 26.2088 63.3858 26.1669 63.3187 26.1837C63.2349 26.1921 63.1679 26.2508 63.0673 26.4103L62.028 28.0053L62.313 28.1984Z" fill="#171635"/>
<path d="M70.7278 32.6395C70.3507 32.3121 70.183 32.2533 69.9064 32.48C69.7137 32.6479 69.4706 32.8493 68.9426 33.3362L66.6545 35.4601L66.4366 35.225L67.149 30.0371L65.7409 31.3383C65.2297 31.8168 64.995 32.0602 64.8357 32.2281C64.5675 32.5052 64.601 32.7318 64.9447 33.1767L64.7771 33.3362L63.4863 31.9427L63.654 31.7832C64.006 32.1022 64.2155 32.161 64.5172 31.9343C64.7184 31.7748 64.9782 31.5566 65.4978 31.0781L66.9394 29.7433C67.1071 29.5922 67.1909 29.4915 67.2244 29.2648C67.2663 29.0214 67.1825 28.8703 66.9562 28.5765L67.1238 28.417L67.962 29.3236L67.3501 34.31L68.6828 33.076C69.2108 32.5891 69.4371 32.3625 69.5963 32.1778C69.831 31.9259 69.8059 31.7161 69.4119 31.2376L69.5796 31.0781L70.8871 32.4884L70.7278 32.6395Z" fill="#171635"/>
<path d="M70.5101 39.3968C70.3089 39.4555 69.4875 39.6738 69.2528 39.7158L67.3838 36.3663L67.585 36.2572C67.9873 36.8616 68.0711 36.87 68.6326 36.5594L71.3063 35.0651C71.9098 34.7294 71.9014 34.637 71.6667 34.1082L71.8678 33.999L73.0412 36.1061C73.4016 36.7609 73.5525 37.0127 73.6112 37.0966C73.4519 37.1974 72.949 37.5164 72.597 37.7514L72.4462 37.5584C72.6389 37.3653 72.7646 37.1974 72.8652 37.0379C73.0077 36.8112 72.9742 36.6349 72.7563 36.2404L72.4126 35.6276C72.2869 35.4093 72.2618 35.4009 72.0606 35.5185L70.5687 36.3495L70.9794 37.0883C71.2476 37.5751 71.3733 37.5583 71.893 37.3821L72.0187 37.6003L70.5939 38.3978L70.4682 38.1795C70.9124 37.8102 70.9543 37.7178 70.6861 37.2477L70.2754 36.5174L68.9511 37.2561C68.4734 37.5248 68.4901 37.6843 68.6745 38.0368L69.0098 38.6413C69.2361 39.0526 69.3367 39.0946 69.5965 39.1449C69.8228 39.1953 70.1748 39.1869 70.443 39.1617L70.5101 39.3968Z" fill="#171635"/>
<path d="M70.946 45.0475C70.9208 44.9551 70.9041 44.8712 70.8789 44.7789C70.7281 44.1493 70.7951 43.8135 71.1388 43.377C71.4405 42.9824 71.8344 42.5795 72.1529 42.2185C72.3457 42.0086 72.3541 41.8911 72.2535 41.5385L72.1781 41.2951L71.0214 41.6477C70.3928 41.8407 70.3761 41.9331 70.4934 42.5375L70.2755 42.6046L69.6553 40.5648L69.8732 40.4976C70.1246 41.0852 70.1749 41.1272 70.8035 40.9425L73.7621 40.0443C74.3907 39.8512 74.3991 39.7673 74.2818 39.1629L74.4997 39.0957L75.0864 41.0432C75.254 41.6057 75.3043 42.0002 75.1954 42.3444C75.0948 42.7054 74.8182 43.0076 74.3572 43.1503C73.7118 43.3434 73.1922 43.0496 72.7983 42.5795C72.6055 42.7809 72.2032 43.2426 71.935 43.57C71.6165 43.9646 71.474 44.166 71.3399 44.3843C71.189 44.6445 71.1555 44.8208 71.1639 45.0139L70.946 45.0475ZM72.5384 41.5469C72.6558 41.9247 72.7815 42.1513 72.991 42.2856C73.2928 42.5039 73.6197 42.5291 74.022 42.4116C74.8182 42.1681 74.9523 41.5637 74.7847 41.0181C74.7176 40.8082 74.6506 40.6907 74.5919 40.6571C74.5248 40.6067 74.441 40.6067 74.2483 40.6655L72.4295 41.2195L72.5384 41.5469Z" fill="#171635"/>
<path d="M28.6021 59.7919C28.4345 59.4897 28.3423 59.4058 28.1076 59.4813C27.9484 59.5401 27.7304 59.6156 27.2695 59.8087L25.2663 60.623L25.1909 60.4299L26.9342 57.2232L25.6854 57.7352C25.2328 57.9199 25.0149 58.0291 24.8724 58.0962C24.621 58.2137 24.5958 58.3648 24.7132 58.7342L24.5707 58.793L24.0762 57.5757L24.2187 57.517C24.3695 57.8192 24.4952 57.9031 24.7467 57.8276C24.9143 57.7772 25.1406 57.6933 25.5932 57.5086L26.8672 56.9881C27.0096 56.9293 27.0851 56.8874 27.1605 56.7531C27.2443 56.6104 27.2359 56.4928 27.1605 56.2326L27.303 56.1738L27.6047 56.921L25.9536 60.069L27.1773 59.5653C27.6466 59.3722 27.8562 59.2799 27.9986 59.2043C28.2166 59.0952 28.2417 58.9525 28.0992 58.5411L28.2417 58.4824L28.7446 59.7164L28.6021 59.7919Z" fill="#171635"/>
<path d="M27.0849 63.8463C27.043 63.7791 27.0178 63.6532 27.0346 63.5777C27.0597 63.4769 27.1016 63.4098 27.1687 63.3426C26.934 63.2335 26.6239 63.116 26.5317 62.9733C26.3305 62.6459 26.4563 62.2429 26.7496 62.0582C26.9759 61.9155 27.2022 61.9491 27.4453 62.1506C27.7135 62.3689 28.0487 62.6459 28.1912 62.6878L28.2834 62.6291C28.6103 62.4276 28.6941 62.1422 28.5432 61.9072C28.4762 61.798 28.384 61.7645 28.3002 61.7561C28.208 61.7477 28.0822 61.7728 27.923 61.8148C27.8392 61.84 27.7805 61.8148 27.7386 61.7477C27.6883 61.6637 27.7051 61.4874 27.814 61.4203C27.8811 61.3783 27.9733 61.4035 28.0906 61.4622C28.2666 61.5378 28.6019 61.6973 28.8198 61.9239C28.9036 62.0582 28.9539 62.2262 28.9371 62.3857C28.8952 62.6291 28.7863 62.8054 28.5516 62.9481L27.6632 63.5021C27.4536 63.6364 27.4369 63.754 27.4872 63.8379C27.5207 63.8967 27.5794 63.9386 27.638 63.9722L27.5375 64.0981L27.0849 63.8463ZM28.0403 62.7886C27.9314 62.7214 27.6967 62.5619 27.5877 62.478C27.4033 62.3521 27.2441 62.3017 27.0765 62.4108C26.8334 62.5619 26.8334 62.8138 26.9256 62.9649C27.001 63.0824 27.1771 63.2083 27.3279 63.2419C27.5375 63.0992 27.8224 62.9229 28.0403 62.7886Z" fill="#171635"/>
<path d="M28.8284 66.0884C28.7362 66.0464 28.6608 65.9961 28.6272 65.9541C28.4093 65.6855 28.4596 65.4084 28.8032 65.1398L30.0353 64.1576L29.8006 63.8638L29.8342 63.8051L30.0437 63.8218L30.2029 64.0149L30.555 63.7295C30.7058 63.7379 30.9153 63.7799 31.0578 63.7883L31.0997 63.8554C30.9154 63.9897 30.6639 64.1828 30.4628 64.3423L30.8483 64.8292C30.8399 64.8964 30.731 64.9635 30.6555 64.9383L30.2951 64.485L29.2139 65.3497C28.8703 65.6267 28.9206 65.8114 29.0044 65.9205C29.0882 66.0212 29.1972 66.0884 29.281 66.122L29.1972 66.2479L28.8284 66.0884Z" fill="#171635"/>
<path d="M31.854 69.0945C31.6445 68.9434 31.3846 68.7839 31.1332 68.6496C31.1919 68.5909 31.326 68.4481 31.4265 68.3474C31.0494 68.3222 30.756 68.2802 30.5465 68.0704C30.2867 67.8185 30.2196 67.4408 30.6303 67.0211L31.3595 66.2655C31.5606 66.0557 31.5522 66.0053 31.4768 65.8878L31.3846 65.7619L31.4852 65.6611C31.6612 65.8122 31.9546 66.0221 32.1054 66.1312C31.9713 66.2404 31.7953 66.4334 31.5439 66.6853L31.0326 67.2141C30.6974 67.5583 30.7812 67.8269 30.9572 67.9948C31.0997 68.1375 31.3008 68.2131 31.5523 68.2131L32.4323 67.3065C32.6334 67.0966 32.6167 67.021 32.4993 66.8783L32.3904 66.744L32.491 66.6433C32.7508 66.8699 33.0609 67.0966 33.1699 67.1638L31.9127 68.4649C31.7283 68.658 31.7283 68.7168 31.8707 68.8679L31.9797 68.977L31.854 69.0945Z" fill="#171635"/>
<path d="M33.8402 70.7961L32.8428 70.0574L32.935 69.9399C33.2283 70.1162 33.2702 70.1162 33.4798 69.8307L34.1503 68.9241C34.3598 68.6387 34.3514 68.6135 34.1251 68.3953L34.209 68.2861C34.4436 68.4121 34.6783 68.5044 34.9549 68.5631C34.8459 68.7059 34.7118 68.8989 34.6029 69.0416C34.9214 68.9241 35.2818 68.8234 35.4997 68.9829C35.6589 69.1004 35.6757 69.2683 35.6003 69.3774C35.5248 69.4782 35.3907 69.5201 35.2734 69.5117C35.2063 69.5033 35.1812 69.4781 35.1644 69.4194C35.1477 69.3103 35.1309 69.2263 35.0471 69.1676C34.9549 69.1004 34.6951 69.1172 34.4352 69.2683L33.8318 70.0826C33.6222 70.368 33.6222 70.4099 33.9407 70.6786L33.8402 70.7961Z" fill="#171635"/>
<path d="M36.841 72.7284C36.774 72.6865 36.6902 72.5941 36.6734 72.5186C36.6483 72.4262 36.6566 72.3423 36.6734 72.2415C36.4136 72.2667 36.0867 72.3087 35.9358 72.2248C35.6006 72.0401 35.5168 71.6287 35.6844 71.3181C35.8101 71.0831 36.028 71.0075 36.3381 71.0663C36.6818 71.1251 37.1008 71.2006 37.2517 71.1754L37.302 71.0831C37.4864 70.7473 37.4277 70.4619 37.1846 70.3192C37.0757 70.2604 36.9835 70.2772 36.8997 70.3024C36.8075 70.336 36.7237 70.4283 36.598 70.5374C36.5309 70.5962 36.4722 70.6046 36.3968 70.571C36.3046 70.5206 36.2376 70.3611 36.3046 70.2436C36.3381 70.1765 36.4387 70.1513 36.5644 70.1429C36.7572 70.1177 37.126 70.1009 37.4277 70.1932C37.5702 70.2688 37.6959 70.3947 37.7546 70.5458C37.8384 70.7809 37.83 70.9824 37.6875 71.2258L37.1763 72.1408C37.0506 72.3591 37.1008 72.4682 37.1846 72.5186C37.2433 72.5521 37.3188 72.5605 37.3858 72.5605L37.3607 72.72L36.841 72.7284ZM37.1679 71.3433C37.0338 71.3349 36.7572 71.3097 36.6231 71.2929C36.3968 71.2762 36.2376 71.3013 36.1454 71.4776C36.0029 71.7295 36.1286 71.9477 36.2795 72.0317C36.4052 72.0988 36.6147 72.124 36.7572 72.082C36.8829 71.8554 37.0422 71.57 37.1679 71.3433Z" fill="#171635"/>
<path d="M38.3828 73.4078L38.4415 73.2651C38.7767 73.3658 38.827 73.3574 38.9611 73.0301L39.9585 70.646C40.0842 70.3438 40.0758 70.3018 39.7741 70.1255L39.8328 69.9912C40.1094 70.0752 40.453 70.1255 40.6374 70.1339C40.5368 70.369 40.4362 70.604 40.344 70.839L39.3634 73.1896C39.2293 73.5169 39.2461 73.5589 39.5562 73.7184L39.4975 73.8611L38.3828 73.4078Z" fill="#171635"/>
<path d="M46.9994 73.5004C46.6222 73.4836 46.5384 73.5675 46.3205 73.8026C46.1529 73.9873 45.9769 74.1719 45.7338 74.4322C45.9266 74.684 46.3624 75.3472 46.4798 75.6326L46.4378 75.683C46.1529 75.6074 45.8679 75.4396 45.8176 75.364C45.7673 75.2801 45.5494 74.9946 45.4069 74.7848C44.9376 75.2465 44.5604 75.364 44.1749 75.3052C43.4876 75.1961 43.1859 74.6421 43.2613 74.172C43.3451 73.6767 43.6552 73.5256 44.2168 73.2737C43.9989 73.0135 43.8732 72.7449 43.9151 72.4511C43.9989 71.9726 44.4515 71.6704 44.9292 71.7459C45.3734 71.8131 45.6751 72.174 45.6081 72.6106C45.5662 72.8288 45.4405 72.9715 45.3064 73.0471C45.189 73.1142 45.013 73.1898 44.8035 73.2737C44.9543 73.45 45.3399 73.8782 45.6249 74.2727C45.7757 74.0964 45.9098 73.9369 46.0523 73.7187C46.1948 73.492 46.1613 73.408 45.7757 73.3073L45.8009 73.1562L47.0245 73.3409L46.9994 73.5004ZM44.3593 74.9695C44.7281 75.0282 44.9543 74.9443 45.2896 74.6253C45.0633 74.2727 44.7364 73.9033 44.3341 73.4416C43.9151 73.6347 43.7726 73.8446 43.7307 74.1216C43.6552 74.6169 44.0156 74.9107 44.3593 74.9695ZM44.8454 71.9306C44.5772 71.8886 44.3844 72.0733 44.3341 72.3839C44.2922 72.6525 44.4012 72.8456 44.6861 73.1478C45.0214 72.9799 45.1723 72.8288 45.2142 72.5602C45.2477 72.258 45.1387 71.981 44.8454 71.9306Z" fill="#171635"/>
<path d="M53.7886 71.9564C53.4533 72.0319 53.3443 72.0991 53.3611 72.3509C53.3779 72.5188 53.3946 72.7455 53.4533 73.2492L53.7131 75.3982L53.512 75.4234L50.8886 72.8966L51.0478 74.2397C51.1065 74.7182 51.1484 74.9617 51.1819 75.1128C51.2238 75.3814 51.3663 75.4485 51.7603 75.4317L51.777 75.5829L50.4779 75.734L50.4611 75.5829C50.788 75.5157 50.9053 75.4234 50.897 75.1547C50.897 74.9784 50.8718 74.735 50.8132 74.2481L50.6539 72.8798C50.6371 72.7287 50.612 72.6447 50.5031 72.5356C50.3857 72.4181 50.2684 72.3929 50.0002 72.4013L49.9834 72.2502L50.788 72.1578L53.3779 74.5839L53.2186 73.2743C53.1599 72.7791 53.118 72.544 53.0845 72.3845C53.0426 72.1411 52.9085 72.0823 52.4727 72.1075L52.4559 71.9564L53.7802 71.7969L53.7886 71.9564Z" fill="#171635"/>
<path d="M58.1132 74.0305C57.8785 74.1396 57.6187 74.2991 57.3757 74.4502C57.3505 74.3663 57.2919 74.1816 57.2499 74.0557C57.0404 74.3747 56.8644 74.6097 56.5794 74.6937C56.2358 74.8028 55.867 74.6769 55.6994 74.1144L55.3893 73.1071C55.3055 72.8301 55.2552 72.8133 55.1127 72.8217L54.9618 72.8385L54.9199 72.7041C55.1378 72.6286 55.4647 72.4691 55.6323 72.3852C55.6659 72.5531 55.7413 72.8049 55.8503 73.149L56.0682 73.8542C56.2107 74.3075 56.4872 74.3663 56.7135 74.2907C56.9063 74.232 57.0656 74.0893 57.1913 73.871L56.8225 72.6706C56.7387 72.3936 56.6633 72.3768 56.4789 72.4019L56.3029 72.4355L56.2609 72.3012C56.5878 72.1837 56.9315 72.0158 57.0404 71.957L57.5684 73.6863C57.6439 73.9465 57.7025 73.9717 57.9037 73.9214L58.0462 73.8794L58.1132 74.0305Z" fill="#171635"/>
<path d="M60.3675 73.1724C60.3004 73.2563 60.2334 73.3067 60.1831 73.3319C59.8646 73.4746 59.6132 73.3571 59.4372 72.9625L58.7834 71.527L58.4481 71.6781L58.4062 71.6278L58.4733 71.4263L58.6996 71.3256L58.5152 70.9143C58.5655 70.7715 58.6493 70.5784 58.6996 70.4441L58.775 70.4189C58.8588 70.6288 58.9846 70.9142 59.0935 71.1577L59.655 70.9058C59.7221 70.931 59.7556 71.0486 59.7137 71.1241L59.1857 71.3675L59.7556 72.6267C59.94 73.0213 60.1244 73.0297 60.2585 72.9709C60.3758 72.9206 60.468 72.8198 60.5183 72.7527L60.6189 72.8618L60.3675 73.1724Z" fill="#171635"/>
<path d="M62.8899 71.8221L61.8255 72.4517L61.7501 72.3174C62.0267 72.116 62.0434 72.074 61.859 71.7718L61.2891 70.8064C61.1047 70.4958 61.0796 70.4958 60.7946 70.6217L60.7275 70.5042C60.9371 70.3279 61.1047 70.1516 61.2723 69.9249C61.3645 70.076 61.4819 70.2859 61.5741 70.437C61.5908 70.1012 61.6411 69.7235 61.8674 69.5892C62.0434 69.4884 62.2027 69.5388 62.2697 69.6563C62.3368 69.7655 62.32 69.9082 62.2613 70.0089C62.2278 70.0677 62.1943 70.0845 62.1356 70.0677C62.0267 70.0425 61.9428 70.0257 61.859 70.0761C61.7585 70.1348 61.6746 70.3783 61.7082 70.6805L62.2278 71.5535C62.4122 71.8641 62.4457 71.8725 62.8229 71.6878L62.8899 71.8221Z" fill="#171635"/>
<path d="M63.0746 68.1026C62.9573 68.195 62.7645 68.1614 62.6723 68.0439C62.5717 67.9012 62.6052 67.7249 62.731 67.6325C62.8567 67.5402 63.0243 67.5654 63.1249 67.7081C63.2171 67.8256 63.2003 68.0019 63.0746 68.1026ZM64.3905 70.8225L64.2983 70.6966C64.5497 70.4699 64.5665 70.4195 64.3486 70.1257L63.6864 69.2359C63.4853 68.9673 63.4601 68.9589 63.1668 69.11L63.0914 69.0092C63.2841 68.7994 63.4518 68.5979 63.5775 68.3796C63.7116 68.5643 63.8457 68.7406 63.9798 68.9253L64.6838 69.8823C64.9017 70.1761 64.952 70.1761 65.2538 69.9914L65.3459 70.1089L64.3905 70.8225Z" fill="#171635"/>
<path d="M67.1569 68.5463C67.1234 68.647 67.0731 68.7226 67.0312 68.7562C66.7714 68.9912 66.4948 68.9576 66.2098 68.6386L65.1537 67.4718L64.8772 67.7236L64.8185 67.69V67.4718L65.0029 67.3039L64.7012 66.9681C64.7012 66.817 64.7263 66.6071 64.7263 66.456L64.7934 66.4141C64.9358 66.5903 65.1454 66.8254 65.3214 67.0185L65.774 66.5987C65.8494 66.6071 65.9165 66.7079 65.8997 66.7834L65.4722 67.178L66.4026 68.2021C66.6959 68.5295 66.8803 68.4707 66.9809 68.3784C67.0731 68.2944 67.1401 68.1685 67.1653 68.093L67.2994 68.1685L67.1569 68.5463Z" fill="#171635"/>
<path d="M66.4687 65.0135C66.3682 65.1226 66.1754 65.1394 66.0665 65.0303C65.9407 64.9128 65.9407 64.7281 66.0413 64.6106C66.1419 64.5015 66.3179 64.4931 66.4436 64.6022C66.5526 64.7113 66.5693 64.896 66.4687 65.0135ZM68.2959 67.4228L68.1869 67.322C68.3881 67.045 68.3965 67.003 68.1283 66.7596L67.3069 66.0125C67.0554 65.7858 67.0303 65.7858 66.7789 65.9873L66.6783 65.9034C66.8291 65.6599 66.9465 65.4249 67.0303 65.1898C67.1979 65.3409 67.3656 65.492 67.5332 65.6431L68.4132 66.4406C68.6814 66.684 68.7317 66.6757 68.9916 66.4406L69.1005 66.5413L68.2959 67.4228Z" fill="#171635"/>
<path d="M68.6816 63.091C69.0672 62.537 69.7796 62.4278 70.3495 62.8224C71.0619 63.3261 71.0284 64.0984 70.7267 64.5265C70.2992 65.1393 69.5449 65.1645 69.0504 64.8119C68.3296 64.3166 68.3883 63.5107 68.6816 63.091ZM68.7906 63.2505C68.5978 63.5191 68.69 63.9473 69.2013 64.3082C69.7628 64.7028 70.3411 64.7448 70.5926 64.3754C70.7853 64.0984 70.7434 63.729 70.14 63.3093C69.6371 62.9483 69.0672 62.8644 68.7906 63.2505Z" fill="#171635"/>
<path d="M73.183 59.8421C73.0992 60.0939 73.0322 60.3793 72.9819 60.6647C72.9065 60.6227 72.7304 60.5388 72.6131 60.48C72.6969 60.8494 72.7472 61.1432 72.6131 61.4034C72.4539 61.7308 72.1102 61.9071 71.5906 61.6469L70.6519 61.1768C70.392 61.0425 70.3418 61.0677 70.258 61.1768L70.1658 61.3027L70.04 61.2355C70.1322 61.0257 70.2412 60.6815 70.2999 60.4968C70.4507 60.5892 70.677 60.7067 70.9955 60.8662L71.6492 61.1936C72.0767 61.4034 72.303 61.2439 72.4119 61.0257C72.5041 60.8494 72.5125 60.6311 72.4455 60.3877L71.3224 59.8253C71.0626 59.6909 70.9955 59.7329 70.8949 59.8924L70.7944 60.0351L70.6686 59.968C70.8111 59.649 70.9201 59.288 70.962 59.1621L72.5796 59.968C72.8226 60.0855 72.8729 60.0687 72.9735 59.8924L73.0489 59.7581L73.183 59.8421Z" fill="#171635"/>
<path d="M72.6045 56.7106C72.2776 56.7022 72.0262 56.7694 71.9256 57.08C71.8669 57.2562 71.9424 57.4409 72.1519 57.5081C72.3698 57.5836 72.5207 57.4661 72.7553 57.2311C73.1157 56.8617 73.342 56.6938 73.6773 56.8113C74.1466 56.9708 74.2388 57.4829 74.1047 57.8858C74.0125 58.1544 73.8533 58.3559 73.7527 58.4483C73.5935 58.4231 73.3001 58.3727 73.1241 58.3391L73.1493 58.1796C73.5097 58.1964 73.8365 58.1125 73.9539 57.7515C74.0209 57.5584 73.9455 57.3486 73.7276 57.273C73.5013 57.1975 73.3337 57.2898 73.1074 57.5165C72.814 57.8187 72.5458 58.0537 72.1854 57.9278C71.8083 57.8019 71.6323 57.3906 71.7999 56.9037C71.8753 56.6854 71.9843 56.5343 72.0346 56.4336C72.1603 56.4588 72.4955 56.5343 72.6296 56.5511L72.6045 56.7106Z" fill="#171635"/>
<path d="M79.7542 53.1755C78.2958 52.5123 77.2817 51.0433 77.2817 49.3308C77.2817 47.6267 78.2874 46.166 79.7374 45.5028C80.2151 45.2846 80.7432 45.1503 81.3047 45.1251C81.2293 44.5458 81.1371 43.975 81.0281 43.4042C78.212 28.319 64.9946 16.9023 49.1119 16.9023C33.2376 16.9023 20.0286 28.3106 17.2041 43.379C17.0951 43.9498 17.0029 44.5291 16.9275 45.1167C17.4807 45.1167 18.0171 45.2258 18.5032 45.4273C20.0454 46.0569 21.1266 47.5679 21.1266 49.3308C21.1266 51.102 20.0286 52.6215 18.478 53.2427C17.9919 53.4357 17.4723 53.5449 16.9191 53.5449H16.9023C16.9778 54.1325 17.07 54.7117 17.1706 55.2826C19.928 70.4432 33.179 81.9439 49.1119 81.9439C65.0533 81.9439 78.3126 70.4349 81.0533 55.2658C81.1538 54.6949 81.246 54.1241 81.3215 53.5449C80.7599 53.5197 80.2319 53.3938 79.7542 53.1755Z" stroke="#171635" stroke-miterlimit="10"/>
<path d="M79.4926 54.9147C76.9112 69.3703 64.2889 80.342 49.1102 80.342C33.9735 80.342 21.3763 69.429 18.7529 55.0323C21.1835 54.2851 22.9604 52.0186 22.9604 49.3407C22.9604 46.6712 21.2087 44.413 18.7864 43.6575C21.4852 29.3447 34.0405 18.5156 49.1186 18.5156C64.2386 18.5156 76.819 29.4035 79.4675 43.7751C77.2297 44.6313 75.6372 46.7971 75.6372 49.3407C75.6288 51.8927 77.2381 54.0669 79.4926 54.9147Z" stroke="#171635" stroke-width="0.5" stroke-miterlimit="10"/>
<path d="M49.1524 67.6986C59.2526 67.6986 67.4405 59.4978 67.4405 49.3815C67.4405 39.2653 59.2526 31.0645 49.1524 31.0645C39.0521 31.0645 30.8643 39.2653 30.8643 49.3815C30.8643 59.4978 39.0521 67.6986 49.1524 67.6986Z" stroke="#171635" stroke-width="0.5" stroke-miterlimit="10"/>
</svg>
