<svg width="117" height="117" viewBox="0 0 117 117" fill="none" xmlns="http://www.w3.org/2000/svg">
<path d="M104.732 55.378C104.539 55.5657 104.395 55.7972 104.312 56.0528C104.229 56.3083 104.209 56.5802 104.254 56.8451L106.683 71.0062C106.736 71.3109 106.702 71.6242 106.585 71.9106C106.469 72.1969 106.274 72.445 106.024 72.6267C105.774 72.8083 105.478 72.9164 105.17 72.9385C104.861 72.9607 104.553 72.8961 104.279 72.7521L91.5623 66.068C91.3346 65.9436 91.0792 65.8783 90.8197 65.8783C90.5601 65.8783 90.3047 65.9436 90.077 66.068L80.7399 70.9742L77.3578 72.7521C77.0843 72.896 76.7759 72.9604 76.4676 72.9382C76.1593 72.916 75.8633 72.8079 75.6132 72.6263C75.3631 72.4446 75.1688 72.1967 75.0523 71.9104C74.9358 71.6241 74.9017 71.3109 74.9538 71.0062L77.3829 56.8451C77.4289 56.5803 77.4096 56.3084 77.3268 56.0528C77.244 55.7971 77.1001 55.5655 76.9077 55.378L66.6176 45.3507C66.3962 45.1349 66.2396 44.8614 66.1655 44.5611C66.0914 44.2609 66.1028 43.946 66.1983 43.6519C66.2939 43.3578 66.4699 43.0963 66.7063 42.897C66.9427 42.6977 67.2302 42.5685 67.5362 42.524L71.3387 41.971L75.8702 41.3129L75.8656 41.306L81.6996 40.4582C81.9654 40.419 82.2177 40.3159 82.4349 40.158C82.6522 40 82.828 39.7917 82.9473 39.551L89.3046 26.6673C89.4479 26.3892 89.6649 26.156 89.932 25.9931C90.199 25.8303 90.5058 25.7441 90.8186 25.7441C91.1313 25.7441 91.4381 25.8303 91.7051 25.9931C91.9722 26.156 92.1892 26.3892 92.3325 26.6673L98.692 39.551C98.8111 39.7919 98.9868 40.0004 99.2041 40.1584C99.4214 40.3164 99.6739 40.4193 99.9398 40.4582L105.771 41.306L105.769 41.3129L114.101 42.524C114.407 42.5682 114.695 42.6973 114.931 42.8966C115.168 43.0959 115.344 43.3574 115.44 43.6516C115.535 43.9458 115.546 44.2609 115.472 44.5612C115.398 44.8615 115.241 45.135 115.02 45.3507L104.732 55.378Z" fill="#FFE236"/>
<path d="M115.02 45.3507C115.241 45.135 115.398 44.8615 115.472 44.5612C115.546 44.2609 115.535 43.9458 115.44 43.6516C115.344 43.3574 115.168 43.0959 114.931 42.8966C114.695 42.6973 114.407 42.5683 114.101 42.524L105.769 41.3129L105.771 41.306L99.9398 40.4582C99.6739 40.4193 99.4215 40.3164 99.2041 40.1584C98.9868 40.0004 98.8111 39.7919 98.692 39.551L92.3325 26.6673C92.1893 26.3892 91.9722 26.156 91.7052 25.9931C91.4381 25.8303 91.1314 25.7441 90.8186 25.7441C90.5058 25.7441 90.199 25.8303 89.932 25.9931C89.6649 26.156 89.4479 26.3892 89.3047 26.6673L88.8096 27.6706C88.8443 27.7229 88.876 27.777 88.9047 27.8327L95.2643 40.7165C95.3833 40.9574 95.5591 41.1658 95.7764 41.3238C95.9937 41.4818 96.2462 41.5848 96.512 41.6237L102.344 42.4715L102.341 42.4784L110.673 43.6895C110.979 43.7337 111.267 43.8628 111.504 44.0621C111.74 44.2613 111.916 44.5229 112.012 44.8171C112.107 45.1113 112.119 45.4263 112.045 45.7266C111.97 46.0269 111.813 46.3005 111.592 46.5162L101.304 56.5435C101.112 56.7312 100.968 56.9627 100.885 57.2182C100.801 57.4737 100.781 57.7456 100.826 58.0106L103.256 72.1717C103.258 72.1868 103.258 72.2013 103.26 72.2164L104.279 72.7521C104.553 72.8961 104.861 72.9607 105.17 72.9386C105.478 72.9164 105.774 72.8084 106.024 72.6267C106.274 72.445 106.469 72.197 106.585 71.9106C106.702 71.6242 106.736 71.3109 106.683 71.0062L104.254 56.8451C104.209 56.5802 104.229 56.3083 104.312 56.0528C104.395 55.7973 104.539 55.5657 104.732 55.3781L115.02 45.3507Z" fill="#FFD00B"/>
<path d="M40.0944 55.378C39.902 55.5655 39.7581 55.7971 39.6753 56.0528C39.5925 56.3084 39.5732 56.5803 39.6192 56.8451L42.0483 71.0062C42.1004 71.3109 42.0663 71.6241 41.9498 71.9103C41.8333 72.1966 41.639 72.4446 41.3889 72.6263C41.1387 72.8079 40.8428 72.9159 40.5345 72.9382C40.2262 72.9604 39.9178 72.8959 39.6443 72.7521L35.7686 70.716L26.9251 66.068C26.6974 65.9435 26.442 65.8783 26.1824 65.8783C25.9229 65.8783 25.6675 65.9435 25.4398 66.068L12.7228 72.7521C12.4493 72.8961 12.1408 72.9607 11.8325 72.9385C11.5241 72.9164 11.2281 72.8083 10.9779 72.6267C10.7278 72.445 10.5335 72.1969 10.417 71.9105C10.3005 71.6242 10.2665 71.3109 10.3188 71.0062L12.748 56.8451C12.793 56.5801 12.773 56.3083 12.6898 56.0527C12.6066 55.7972 12.4627 55.5657 12.2704 55.378L1.9826 45.3507C1.76093 45.135 1.60409 44.8615 1.52986 44.5612C1.45562 44.2609 1.46695 43.9458 1.56255 43.6516C1.65816 43.3574 1.83423 43.0959 2.07082 42.8966C2.30741 42.6973 2.59507 42.5682 2.90123 42.524L11.2329 41.3129L11.2307 41.306L17.0623 40.4582C17.3282 40.4193 17.5807 40.3164 17.798 40.1584C18.0153 40.0004 18.1911 39.7919 18.3101 39.551L24.6696 26.6673C24.8129 26.3892 25.0299 26.156 25.297 25.9931C25.564 25.8303 25.8708 25.7441 26.1836 25.7441C26.4963 25.7441 26.8031 25.8303 27.0701 25.9931C27.3372 26.156 27.5542 26.3892 27.6975 26.6673L34.0548 39.551C34.1741 39.7917 34.3499 40 34.5672 40.158C34.7844 40.3159 35.0367 40.419 35.3025 40.4582L41.1365 41.306L41.1319 41.3129L45.0395 41.8819L49.4659 42.524C49.7719 42.5685 50.0594 42.6977 50.2958 42.897C50.5322 43.0963 50.7082 43.3578 50.8038 43.6519C50.8993 43.9459 50.9107 44.2609 50.8366 44.5611C50.7625 44.8614 50.6059 45.1349 50.3845 45.3507L40.0944 55.378Z" fill="#FFE236"/>
<path d="M95.11 52.3404L80.9192 66.1701C80.6541 66.4293 80.4559 66.7489 80.3417 67.1016C80.2274 67.4543 80.2005 67.8294 80.2633 68.1948L80.7409 70.9713L77.3589 72.7491C77.0853 72.893 76.777 72.9575 76.4686 72.9352C76.1603 72.913 75.8644 72.805 75.6143 72.6233C75.3642 72.4417 75.1699 72.1937 75.0534 71.9074C74.9368 71.6211 74.9027 71.3079 74.9549 71.0032L77.384 56.8421C77.4299 56.5774 77.4107 56.3054 77.3279 56.0498C77.245 55.7942 77.1012 55.5626 76.9087 55.3751L66.6187 45.3478C66.3972 45.1319 66.2406 44.8584 66.1665 44.5582C66.0924 44.2579 66.1038 43.943 66.1994 43.6489C66.295 43.3548 66.4709 43.0933 66.7073 42.894C66.9438 42.6947 67.2313 42.5655 67.5373 42.521L71.3398 41.968L72.5121 44.3423C72.6763 44.6744 72.9187 44.9616 73.2184 45.1794C73.5181 45.3971 73.8662 45.5388 74.2328 45.5923L93.844 48.4419C94.2659 48.5034 94.6622 48.6818 94.988 48.9567C95.3139 49.2317 95.5564 49.5923 95.6881 49.9978C95.8198 50.4034 95.8354 50.8376 95.7333 51.2516C95.6311 51.6655 95.4152 52.0427 95.11 52.3404ZM40.0948 55.3751C39.9024 55.5626 39.7585 55.7942 39.6757 56.0498C39.5929 56.3054 39.5736 56.5774 39.6196 56.8421L42.0486 71.0032C42.1008 71.3079 42.0667 71.6211 41.9502 71.9074C41.8336 72.1937 41.6393 72.4417 41.3892 72.6233C41.1391 72.8049 40.8432 72.913 40.5349 72.9352C40.2266 72.9575 39.9182 72.893 39.6447 72.7491L35.769 70.713L36.2695 67.7994C36.332 67.4344 36.3051 67.0597 36.1908 66.7074C36.0766 66.3551 35.8785 66.0359 35.6137 65.7771L21.4228 51.945C21.1177 51.6473 20.902 51.2702 20.7999 50.8562C20.6978 50.4423 20.7135 50.0081 20.8452 49.6027C20.9769 49.1972 21.2193 48.8366 21.545 48.5616C21.8708 48.2867 22.267 48.1083 22.6888 48.0465L42.3 45.1992C42.6665 45.1455 43.0145 45.0035 43.3139 44.7853C43.6133 44.5672 43.8551 44.2794 44.0185 43.947L45.0399 41.8789L49.4663 42.5211C49.7723 42.5655 50.0598 42.6947 50.2962 42.894C50.5326 43.0933 50.7086 43.3548 50.8042 43.6489C50.8997 43.943 50.9111 44.2579 50.837 44.5582C50.7629 44.8584 50.6063 45.1319 50.3849 45.3478L40.0948 55.3751Z" fill="#FFD00B"/>
<path d="M60.313 27.4369L69.0827 45.2062C69.2466 45.5385 69.4889 45.8258 69.7887 46.0436C70.0884 46.2614 70.4366 46.403 70.8032 46.4563L90.4129 49.3057C90.8348 49.3671 91.2312 49.5452 91.5572 49.82C91.8832 50.0949 92.1258 50.4555 92.2576 50.861C92.3893 51.2665 92.405 51.7008 92.3028 52.1148C92.2006 52.5288 91.9847 52.9059 91.6793 53.2035L77.4897 67.035C77.2244 67.2936 77.0259 67.6129 76.9114 67.9652C76.7969 68.3176 76.7698 68.6925 76.8325 69.0577L80.1822 88.588C80.2543 89.0083 80.2073 89.4403 80.0467 89.8353C79.886 90.2303 79.6181 90.5724 79.2731 90.8231C78.9281 91.0737 78.5199 91.2228 78.0947 91.2535C77.6694 91.2843 77.244 91.1954 76.8665 90.997L59.3272 81.776C58.9992 81.6036 58.6343 81.5135 58.2638 81.5135C57.8933 81.5135 57.5284 81.6036 57.2004 81.776L39.6611 90.997C39.2837 91.1954 38.8582 91.2843 38.433 91.2535C38.0077 91.2228 37.5995 91.0737 37.2545 90.8231C36.9095 90.5724 36.6416 90.2303 36.4809 89.8353C36.3203 89.4403 36.2733 89.0083 36.3454 88.588L39.6951 69.0577C39.7578 68.6925 39.7307 68.3176 39.6162 67.9652C39.5017 67.6129 39.3032 67.2936 39.0379 67.035L24.8483 53.2035C24.543 52.9059 24.327 52.5288 24.2248 52.1148C24.1226 51.7008 24.1383 51.2665 24.27 50.861C24.4018 50.4555 24.6444 50.0949 24.9704 49.82C25.2964 49.5452 25.6928 49.3671 26.1148 49.3057L45.7244 46.4563C46.091 46.403 46.4392 46.2614 46.7389 46.0436C47.0387 45.8258 47.281 45.5385 47.445 45.2062L56.2146 27.4369C56.4033 27.0545 56.6953 26.7326 57.0574 26.5075C57.4195 26.2824 57.8374 26.1631 58.2638 26.1631C58.6902 26.1631 59.1081 26.2824 59.4702 26.5075C59.8324 26.7326 60.1243 27.0545 60.313 27.4369Z" fill="#FFE236"/>
</svg>
